<?xml version="1.0" encoding="UTF-8" standalone="no"?>
<svg width="312" xmlns="http://www.w3.org/2000/svg" height="320">
 <g fill-rule="evenodd">
  <path id="path3162" d="m147.16 41.355c-23.306 40.604-90.202 156.56-134.24 233.99-3.3781 5.9514 3.4463 17.994 8.9512 17.992 53.584-0.010895 219.26-0.076355 275.63-0.11996 6.2429-0.004822 11.671-13.149 8.383-18.945-36.262-63.925-103.14-179.32-133.51-232.69-0.64424-1.132-6.9808-6.2391-12.212-6.1781-5.3322 0.061153-11.895 4.0169-13.006 5.9518z"/>
  <path id="svg_1" fill="#fff" d="m148.58 55.434c-20.697 36.826-80.106 142-119.21 212.21-3.0001 5.3977 3.0606 16.319 7.9494 16.318 47.587-0.009918 194.72-0.069244 244.78-0.10883 5.5443-0.004364 10.365-11.925 7.4448-17.182-32.203-57.977-91.595-162.64-118.57-211.04-0.57213-1.0266-6.1996-5.6586-10.846-5.6033-4.7354 0.05547-10.564 3.6432-11.55 5.398z"/>
  <path id="path2384" d="m159.44 111.18c-3.7052-0.067787-9.2432 1.1724-13.033 4.384-3.91 3.3136-5.4706 5.8002-5.4954 8.9493-0.20418 25.942 6.1416 87.257 6.1416 87.257s2.3492 9.626 11.694 9.193c8.9132-0.42108 11.395-7.9717 11.395-7.9717 0.073883 0 6.4406-62.621 6.0938-88.478-0.041534-3.0981-1.2195-4.94-5.0674-8.4536-3.3932-3.0983-8.3496-4.8179-11.729-4.8797z"/>
  <path id="path3156" stroke-width="5" d="m173.81 248.93a14.719 12.035 0 1 1 -29.437 0 14.719 12.035 0 1 1 29.437 0z"/>
 </g>
</svg>
