<?xml version="1.0" encoding="UTF-8" standalone="no"?>
<svg
   xmlns:osb="http://www.openswatchbook.org/uri/2009/osb"
   xmlns:dc="http://purl.org/dc/elements/1.1/"
   xmlns:cc="http://creativecommons.org/ns#"
   xmlns:rdf="http://www.w3.org/1999/02/22-rdf-syntax-ns#"
   xmlns:svg="http://www.w3.org/2000/svg"
   xmlns="http://www.w3.org/2000/svg"
   xmlns:xlink="http://www.w3.org/1999/xlink"
   xmlns:sodipodi="http://sodipodi.sourceforge.net/DTD/sodipodi-0.dtd"
   xmlns:inkscape="http://www.inkscape.org/namespaces/inkscape"
   version="1.0"
   width="400.000000pt"
   height="400.000000pt"
   viewBox="0 0 400.000000 400.000000"
   preserveAspectRatio="xMidYMid meet"
   id="svg3064"
   inkscape:version="0.48.4 r9939"
   sodipodi:docname="cactusgreen.svg">
  <defs
     id="defs3082">
    <linearGradient
       id="linearGradient5227"
       osb:paint="solid">
      <stop
         style="stop-color:#027425;stop-opacity:1;"
         offset="0"
         id="stop5229" />
    </linearGradient>
    <linearGradient
       id="linearGradient5221"
       osb:paint="solid">
      <stop
         style="stop-color:#027425;stop-opacity:1;"
         offset="0"
         id="stop5223" />
    </linearGradient>
    <linearGradient
       id="linearGradient5215"
       osb:paint="solid">
      <stop
         style="stop-color:#027425;stop-opacity:1;"
         offset="0"
         id="stop5217" />
    </linearGradient>
    <linearGradient
       id="linearGradient5209"
       osb:paint="solid">
      <stop
         style="stop-color:#027425;stop-opacity:1;"
         offset="0"
         id="stop5211" />
    </linearGradient>
    <linearGradient
       id="linearGradient3761"
       osb:paint="solid">
      <stop
         style="stop-color:#000000;stop-opacity:1;"
         offset="0"
         id="stop3763" />
    </linearGradient>
    <linearGradient
       id="linearGradient5389"
       osb:paint="solid">
      <stop
         style="stop-color:#027425;stop-opacity:0;"
         offset="0"
         id="stop5391" />
    </linearGradient>
    <linearGradient
       id="linearGradient5383"
       osb:paint="solid">
      <stop
         style="stop-color:#027425;stop-opacity:0;"
         offset="0"
         id="stop5385" />
    </linearGradient>
    <linearGradient
       inkscape:collect="always"
       xlink:href="#linearGradient5209"
       id="linearGradient5213"
       x1="650"
       y1="1391.1909"
       x2="2145.7859"
       y2="1391.1909"
       gradientUnits="userSpaceOnUse" />
    <linearGradient
       inkscape:collect="always"
       xlink:href="#linearGradient5215"
       id="linearGradient5219"
       x1="1630.4191"
       y1="2289.3794"
       x2="3028.4054"
       y2="2289.3794"
       gradientUnits="userSpaceOnUse" />
    <linearGradient
       inkscape:collect="always"
       xlink:href="#linearGradient5221"
       id="linearGradient5225"
       x1="1931.6094"
       y1="1081.46"
       x2="3650"
       y2="1081.46"
       gradientUnits="userSpaceOnUse" />
    <linearGradient
       inkscape:collect="always"
       xlink:href="#linearGradient5227"
       id="linearGradient5231"
       x1="243.68371"
       y1="1027.5985"
       x2="780"
       y2="1027.5985"
       gradientUnits="userSpaceOnUse" />
  </defs>
  <sodipodi:namedview
     pagecolor="#ffffff"
     bordercolor="#666666"
     borderopacity="1"
     objecttolerance="10"
     gridtolerance="10"
     guidetolerance="10"
     inkscape:pageopacity="0"
     inkscape:pageshadow="2"
     inkscape:window-width="768"
     inkscape:window-height="480"
     id="namedview3080"
     showgrid="false"
     inkscape:zoom="0.472"
     inkscape:cx="250"
     inkscape:cy="250"
     inkscape:window-x="215"
     inkscape:window-y="20"
     inkscape:window-maximized="0"
     inkscape:current-layer="g3068" />
  <metadata
     id="metadata3066">
Created by potrace 1.12, written by Peter Selinger 2001-2015
<rdf:RDF>
  <cc:Work
     rdf:about="">
    <dc:format>image/svg+xml</dc:format>
    <dc:type
       rdf:resource="http://purl.org/dc/dcmitype/StillImage" />
    <dc:title />
  </cc:Work>
</rdf:RDF>
</metadata>
  <g
     transform="translate(0.000000,400.000000) scale(0.100000,-0.100000)"
     fill="#000000"
     stroke="none"
     id="g3068">
    <path
       d="M0 2000 l0 -2000 2000 0 2000 0 0 2000 0 2000 -2000 0 -2000 0 0 -2000z m2686 1400 c17 -39 35 -92 42 -120 7 -36 18 -40 105 -40 58 0 91 -6 129 -22 l51 -22 -7 -216 -7 -217 33 -14 c18 -7 48 -28 66 -47 28 -30 31 -36 19 -53 -8 -10 -32 -32 -55 -49 -35 -25 -42 -36 -42 -64 0 -37 32 -86 58 -87 11 0 12 -2 5 -6 -22 -8 -14 -23 11 -23 17 0 34 -12 52 -35 24 -31 27 -47 32 -130 4 -83 3 -95 -12 -95 -9 0 -16 -4 -16 -10 0 -5 5 -10 11 -10 8 0 8 -5 -1 -15 -8 -9 -29 -15 -55 -15 -39 0 -44 -3 -54 -31 -17 -49 -14 -92 9 -112 11 -9 20 -23 20 -31 0 -7 7 -19 15 -26 14 -12 14 -15 -4 -34 -10 -12 -26 -38 -35 -59 -8 -20 -23 -40 -33 -44 -51 -19 -73 -85 -73 -224 0 -68 -4 -111 -13 -122 -7 -10 -34 -21 -63 -25 -57 -9 -107 -48 -83 -63 21 -13 51 -11 137 9 59 13 122 17 275 17 108 0 197 4 197 8 0 4 51 5 113 1 l112 -6 51 -53 c36 -37 54 -66 63 -98 13 -56 14 -157 1 -191 -15 -41 -77 -66 -167 -67 -87 -1 -152 -16 -164 -39 -4 -8 -11 -35 -14 -60 -9 -67 -40 -78 -230 -82 -135 -3 -154 -6 -185 -26 -32 -20 -47 -22 -175 -22 -77 0 -156 5 -175 10 -81 25 -230 39 -464 45 -137 3 -257 10 -267 16 -33 17 -147 11 -192 -12 -23 -11 -63 -23 -88 -26 -43 -5 -48 -3 -94 41 -27 25 -59 46 -70 46 -39 0 -85 -66 -85 -121 l0 -31 -55 4 c-45 4 -58 9 -77 34 -49 62 -53 64 -132 64 -72 0 -75 -1 -109 -36 l-36 -37 -46 41 -47 41 -136 4 c-138 4 -218 18 -263 48 -13 9 -49 22 -79 29 -30 7 -68 21 -85 32 -16 10 -37 21 -45 25 -8 4 -22 15 -31 25 -11 12 -30 18 -57 18 -38 0 -43 3 -68 46 -24 41 -26 49 -15 83 16 55 67 120 106 137 24 10 75 14 170 14 l136 0 -3 68 -3 67 30 3 c16 2 36 11 45 20 8 10 27 23 43 31 15 8 27 18 27 23 0 4 5 8 11 8 17 0 48 43 49 68 0 13 9 42 19 65 10 23 21 51 23 62 3 16 12 21 54 23 36 2 56 -2 67 -13 9 -8 31 -15 50 -15 37 0 47 12 47 56 0 39 46 73 99 74 68 0 160 29 173 54 6 12 15 23 19 26 9 7 16 187 7 196 -4 3 -1 13 7 21 8 8 15 23 15 34 0 29 17 23 84 -29 33 -26 77 -54 96 -62 19 -7 42 -19 51 -27 24 -20 77 -27 94 -13 30 25 12 120 -22 120 -13 0 -174 134 -181 150 -5 11 39 60 54 60 8 0 14 4 14 9 0 9 32 24 52 26 4 0 16 8 28 17 29 25 26 77 -6 107 -39 38 -55 77 -52 129 l3 47 85 5 c119 7 117 24 -14 149 -50 47 -106 117 -106 133 0 13 95 10 195 -7 136 -22 143 -21 161 21 9 22 12 48 8 70 -5 26 -3 34 9 34 8 0 17 8 20 19 4 18 13 18 133 14 156 -7 156 -7 158 102 1 77 17 115 36 85 5 -8 10 -10 10 -5 0 6 9 16 20 23 24 15 110 -2 123 -25 4 -7 21 -13 37 -13 34 0 77 40 112 102 12 21 25 38 30 38 4 0 18 10 30 22 12 12 40 25 63 28 42 6 52 -2 81 -70z"
       id="path3070"
       style="fill:none" />
    <path
       d="M2534 3298 c-31 -15 -64 -80 -64 -126 0 -34 -5 -44 -31 -63 -26 -18 -40 -21 -90 -16 -33 3 -66 10 -74 17 -24 20 -54 2 -65 -39 -5 -21 -19 -49 -31 -62 -19 -22 -29 -24 -107 -24 -48 -1 -95 -5 -104 -9 -10 -4 -20 -24 -24 -44 -9 -53 -28 -79 -68 -92 -25 -8 -46 -8 -73 -1 -62 17 -73 15 -73 -18 0 -15 9 -39 19 -53 22 -27 48 -136 38 -161 -3 -9 -19 -19 -34 -23 -55 -12 -56 -13 -50 -47 6 -34 12 -58 22 -93 4 -12 2 -25 -4 -28 -6 -4 -11 -18 -11 -31 0 -14 -16 -42 -40 -67 -41 -44 -51 -81 -26 -95 26 -15 54 -78 61 -138 8 -67 26 -95 62 -95 13 0 42 -8 66 -19 23 -10 69 -26 101 -36 32 -9 69 -27 80 -38 12 -12 46 -42 74 -66 29 -24 77 -76 106 -115 109 -145 139 -241 97 -311 -28 -47 -27 -86 2 -113 32 -30 127 -31 175 -2 17 11 32 24 32 28 0 15 43 57 87 85 24 15 54 44 67 65 38 59 94 109 131 116 39 8 45 23 45 118 0 72 29 158 53 158 25 0 67 41 67 65 0 12 -7 39 -15 60 -10 23 -15 59 -13 102 l3 65 50 17 c49 17 50 18 53 62 2 35 -3 53 -24 84 -17 26 -30 62 -35 100 -5 33 -11 76 -15 95 -5 30 -1 41 22 68 16 18 34 32 42 32 28 0 -9 39 -43 46 -38 7 -75 44 -75 76 0 11 -6 32 -14 46 -42 82 -46 101 -40 187 l7 85 -47 0 c-49 0 -146 42 -146 64 0 6 -7 23 -15 39 -8 15 -19 53 -25 84 -13 72 -34 87 -86 61z"
       id="path3072"
       style="fill:url(#linearGradient5219);fill-opacity:1" />
    <path
       d="M1305 1886 c-8 -20 -15 -43 -15 -53 -1 -36 -29 -55 -117 -78 -48 -14 -91 -25 -95 -25 -5 0 -8 -6 -8 -13 0 -8 -11 -24 -25 -37 -14 -13 -25 -29 -25 -35 0 -25 -58 -54 -116 -59 -33 -2 -60 -5 -61 -5 -2 -1 -19 -34 -39 -75 -24 -48 -46 -79 -63 -87 -50 -25 -91 -60 -91 -79 0 -10 17 -32 38 -47 46 -35 49 -39 57 -82 4 -22 20 -50 41 -71 79 -80 104 -117 104 -151 0 -44 24 -79 55 -79 13 0 40 10 60 21 29 18 54 22 130 23 l95 1 40 -42 c46 -49 55 -51 86 -22 23 21 87 41 132 40 23 -1 83 -36 90 -53 9 -20 54 -5 94 32 23 23 54 43 68 46 79 18 102 27 120 46 11 12 20 18 20 12 1 -5 8 7 16 26 21 48 41 68 97 97 36 18 53 34 64 61 8 20 30 60 49 89 44 69 48 89 29 142 -8 24 -15 61 -15 83 0 28 -7 46 -24 63 -13 13 -45 51 -71 85 -67 87 -93 108 -146 119 -26 6 -63 20 -81 31 -18 11 -47 20 -63 20 -17 0 -36 5 -41 10 -15 15 -132 16 -146 2 -24 -24 -86 -14 -136 21 -88 62 -91 63 -107 23z"
       id="path3074"
       style="fill:url(#linearGradient5213);fill-opacity:1" />
    <path
       d="M2895 1250 c-27 -4 -81 -15 -118 -24 -38 -9 -83 -16 -100 -16 -45 0 -98 -21 -135 -52 -17 -14 -48 -29 -69 -32 -104 -15 -165 -17 -196 -7 -30 10 -43 8 -108 -19 -41 -16 -79 -30 -85 -30 -6 0 -29 -16 -50 -36 -21 -20 -53 -43 -71 -51 -28 -11 -33 -18 -31 -42 2 -23 8 -30 28 -33 37 -7 711 0 815 8 107 8 180 7 257 -1 45 -5 69 -2 114 15 56 20 116 56 122 73 2 4 15 21 28 37 27 32 63 42 224 59 52 6 96 15 98 21 2 5 10 10 18 10 10 0 14 13 14 44 0 41 -2 44 -31 50 -17 3 -106 6 -198 6 -100 0 -198 6 -246 15 -85 15 -199 17 -280 5z"
       id="path3076"
       style="fill:url(#linearGradient5225);fill-opacity:1" />
    <path
       d="M303 1099 c-44 -10 -67 -36 -57 -63 6 -16 81 -41 172 -57 31 -5 79 -14 105 -19 27 -6 86 -10 131 -10 73 0 85 3 104 23 12 13 22 27 22 33 0 5 -20 28 -45 52 l-44 42 -138 0 c-76 0 -154 2 -173 4 -19 3 -54 0 -77 -5z"
       id="path3078"
       style="fill:url(#linearGradient5231);fill-opacity:1" />
  </g>
</svg>
