<?xml version="1.0" encoding="UTF-8" standalone="no"?>
<!-- Generator: Adobe Illustrator 16.2.1, SVG Export Plug-In . SVG Version: 6.00 Build 0)  -->

<svg
   xmlns:dc="http://purl.org/dc/elements/1.1/"
   xmlns:cc="http://creativecommons.org/ns#"
   xmlns:rdf="http://www.w3.org/1999/02/22-rdf-syntax-ns#"
   xmlns:svg="http://www.w3.org/2000/svg"
   xmlns="http://www.w3.org/2000/svg"
   xmlns:sodipodi="http://sodipodi.sourceforge.net/DTD/sodipodi-0.dtd"
   xmlns:inkscape="http://www.inkscape.org/namespaces/inkscape"
   version="1.1"
   id="Layer_1"
   x="0px"
   y="0px"
   width="512px"
   height="512px"
   viewBox="0 0 512 512"
   style="enable-background:new 0 0 512 512;"
   xml:space="preserve"
   inkscape:version="0.48.4 r9939"
   sodipodi:docname="twitter.svg"><metadata
     id="metadata9"><rdf:RDF><cc:Work
         rdf:about=""><dc:format>image/svg+xml</dc:format><dc:type
           rdf:resource="http://purl.org/dc/dcmitype/StillImage" /></cc:Work></rdf:RDF></metadata><defs
     id="defs7" /><sodipodi:namedview
     pagecolor="#ffffff"
     bordercolor="#666666"
     borderopacity="1"
     objecttolerance="10"
     gridtolerance="10"
     guidetolerance="10"
     inkscape:pageopacity="0"
     inkscape:pageshadow="2"
     inkscape:window-width="1366"
     inkscape:window-height="720"
     id="namedview5"
     showgrid="false"
     inkscape:zoom="0.4609375"
     inkscape:cx="256"
     inkscape:cy="256"
     inkscape:window-x="-5"
     inkscape:window-y="-10"
     inkscape:window-maximized="1"
     inkscape:current-layer="Layer_1" /><path
     style="fill:#2aa9e0;fill-opacity:1;stroke:#2aa9e0;stroke-width:2.49212217;stroke-opacity:1"
     d="m 124.87237,443.68386 c -20.09456,-2.32582 -53.282016,-9.76697 -54.845861,-12.29733 -0.584557,-0.94583 5.016097,-3.08011 12.445878,-4.74283 22.282233,-4.98654 62.478883,-26.95245 93.898893,-51.31209 l 28.92992,-22.42911 -11.55909,-1.65076 c -6.3575,-0.90793 -21.19359,-1.74902 -32.96908,-1.86909 -11.7755,-0.12011 -26.70393,-1.81157 -33.17428,-3.75887 -13.60597,-4.09478 -37.068593,-19.50579 -42.638241,-28.00614 -3.690825,-5.63291 -3.58381,-5.83725 3.087441,-5.89553 9.890967,-0.0865 87.40648,-26.42114 82.92052,-28.17096 -2.056,-0.80199 -19.78752,-4.25958 -39.40336,-7.68354 -40.176887,-7.01292 -57.142869,-13.61889 -73.353501,-28.56132 -9.519232,-8.77452 -26.399459,-34.31658 -23.933943,-36.21528 0.478577,-0.36855 10.963244,0.24507 23.299245,1.36359 28.859843,2.6168 69.314139,0.13429 62.580109,-3.84027 C 88.493409,189.92587 56.449496,166.29864 49.388865,156.43421 35.030464,136.37405 27.270899,110.12126 30.299387,91.849162 l 1.549545,-9.349027 14.110049,12.669151 c 40.48107,36.347224 96.588479,65.155234 149.930709,76.981014 22.62545,5.01598 79.30506,11.31538 81.55624,9.06419 0.7442,-0.74418 -0.62483,-10.7781 -3.04226,-22.2976 -3.6327,-17.31044 -3.92382,-23.62138 -1.67783,-36.37208 5.36306,-30.446538 25.13666,-56.808708 52.08153,-69.435136 12.46453,-5.840905 17.53203,-6.738189 38.05451,-6.738189 20.35737,0 25.59598,0.911544 37.38183,6.504619 7.53867,3.577539 19.0829,11.28609 25.65388,17.130113 10.67401,9.493171 12.91365,10.468658 21.01629,9.153784 l 9.06911,-1.471719 -13.39391,13.56239 c -7.36667,7.459291 -12.70738,14.248908 -11.86829,15.088008 2.50329,2.50328 19.89501,5.94784 30.57991,6.05656 l 9.96849,0.10143 -7.7265,4.95089 -7.72647,4.95087 -1.5529,33.012 c -6.48001,137.75494 -93.35843,248.53248 -220.17648,280.74419 -20.3935,5.17994 -63.74911,10.43632 -81.45031,9.87493 -5.6801,-0.18019 -18.17397,-1.2357 -27.76416,-2.34569 l 0,0 z"
     id="path3754"
     inkscape:connector-curvature="0" /></svg>