<?xml version="1.0" encoding="UTF-8" standalone="no"?>
<svg
   xmlns:dc="http://purl.org/dc/elements/1.1/"
   xmlns:cc="http://creativecommons.org/ns#"
   xmlns:rdf="http://www.w3.org/1999/02/22-rdf-syntax-ns#"
   xmlns:svg="http://www.w3.org/2000/svg"
   xmlns="http://www.w3.org/2000/svg"
   xmlns:sodipodi="http://sodipodi.sourceforge.net/DTD/sodipodi-0.dtd"
   xmlns:inkscape="http://www.inkscape.org/namespaces/inkscape"
   height="1000"
   width="879"
   id="svg3818"
   version="1.1"
   inkscape:version="0.48.4 r9939"
   sodipodi:docname="viadeo.svg">
  <metadata
     id="metadata3826">
    <rdf:RDF>
      <cc:Work
         rdf:about="">
        <dc:format>image/svg+xml</dc:format>
        <dc:type
           rdf:resource="http://purl.org/dc/dcmitype/StillImage" />
      </cc:Work>
    </rdf:RDF>
  </metadata>
  <defs
     id="defs3824" />
  <sodipodi:namedview
     pagecolor="#ffffff"
     bordercolor="#666666"
     borderopacity="1"
     objecttolerance="10"
     gridtolerance="10"
     guidetolerance="10"
     inkscape:pageopacity="0"
     inkscape:pageshadow="2"
     inkscape:window-width="1366"
     inkscape:window-height="720"
     id="namedview3822"
     showgrid="false"
     inkscape:zoom="0.236"
     inkscape:cx="439.5"
     inkscape:cy="669.49153"
     inkscape:window-x="-5"
     inkscape:window-y="-10"
     inkscape:window-maximized="1"
     inkscape:current-layer="svg3818" />
  <path
     d="m 0,633 c 0,98 33.666667,183.66667 101,257 67.33333,73.33333 154,110 260,110 105.33333,0 191.66667,-36.66667 259,-110 67.33333,-72 101,-157.66667 101,-257 0,-52 -9,-100.66667 -27,-146 -26.66667,16.66667 -55,28 -85,34 14.66667,34 22,72 22,114 0,50.66667 -12,98 -36,142 -24.66667,44 -57.66667,77.66667 -99,101 -41.33333,24 -86.33333,36 -135,36 -50,0 -95.33333,-12 -136,-36 -42,-24.66667 -74.66667,-58.33333 -98,-101 -24.66667,-43.33333 -37,-90.66667 -37,-142 0,-78 26.66667,-145.33333 80,-202 53.33333,-55.33333 117,-83 191,-83 34,0 66.66667,6.33333 98,19 2.66667,-26 11.66667,-54.66667 27,-86 C 448,269 406.33333,262 361,262 254.33333,262 165.66667,301.33333 95,380 31.666667,451.33333 0,535.66667 0,633 z m 280,253 56,4 c 49.33333,-31.33333 90.83333,-67.66667 124.5,-109 33.66667,-41.33333 57.83333,-82.66667 72.5,-124 14.66667,-41.33333 25,-83.33333 31,-126 4,-27.33333 6,-54 6,-80 0,-14 -0.66667,-27.33333 -2,-40 -3.33333,-36.66667 -7.5,-69.5 -12.5,-98.5 -5,-29 -10.16667,-51.83333 -15.5,-68.5 l -9,-25 C 516.33333,173.66667 501.83333,134 487.5,100 473.16667,66 462.66667,43.666667 456,33 L 445,16 c 26,13.333333 47,29.333333 63,48 15.33333,19.333333 24.66667,37 28,53 2.66667,13.33333 4,26.33333 4,39 l 0,7 c -0.66667,14.66667 -2.66667,26.33333 -6,35 l -5,13 c 2.66667,38.66667 4.33333,76 5,112 0,34.66667 -1.66667,68.66667 -5,102 -2.78302,30.9225 -6.46249,59.47839 -11.03839,85.6677 C 512.6722,540.94064 506.185,568.05141 498.5,592 c -14.33333,44.66667 -30.83333,85.16667 -49.5,121.5 -18.66667,36.33333 -37.83333,64.83333 -57.5,85.5 -19.66667,20.66667 -37.83333,37.83333 -54.5,51.5 -16.66667,13.66667 -30.33333,23.16667 -41,28.5 z M 555,249 c 2.66667,-26.66667 10.33333,-48 23,-64 l 18,-25 c 8,-9.33333 21,-18.16667 39,-26.5 18,-8.33333 34,-14.5 48,-18.5 l 21,-6 C 728,103.66667 750.16667,92 770.5,74 790.83333,56 805.33333,39 814,23 L 827,0 c 27.33333,38 43.66667,81 49,129 2.66667,21.33333 3.66667,40.33333 3,57 0,22.66667 -2,42.33333 -6,59 l -11,45 c -8,22 -19.16667,42 -33.5,60 -14.33333,18 -26.5,30.33333 -36.5,37 l -15,11 c -22.66667,13.33333 -45,20 -67,20 L 601,365 c 38.66667,-21.33333 72.33333,-43 101,-65 28.66667,-22 49.83333,-41.16667 63.5,-57.5 13.66667,-16.33333 24.66667,-31.16667 33,-44.5 8.33333,-13.33333 13.16667,-23.66667 14.5,-31 l 2,-10 c -12,26.66667 -28.16667,51 -48.5,73 -20.33333,22 -41,39.33333 -62,52 -21,12.66667 -41.16667,23.5 -60.5,32.5 -19.33333,9 -35,15.16667 -47,18.5 l -18,5 c -16.66667,-29.33333 -25,-55.66667 -25,-79 0,-3.33333 0.33333,-6.66667 1,-10 z"
     id="path3820"
     inkscape:connector-curvature="0"
     sodipodi:nodetypes="ssscsccsccsccscsccscsccsscscsccsccccscscccssssscccccsscsccccccsccccsssccsssscsc"
     style="fill:#000000;fill-opacity:1;stroke:none" />
  <path
     style="fill:#f4982b;fill-opacity:1;stroke:#f4982b;stroke-width:4.23728800000000039;stroke-opacity:1"
     d="m 307.81206,885.87725 -14.31506,-1.74954 21.60647,-14.55068 c 56.91546,-38.32911 106.37918,-96.66487 139.74835,-164.81428 57.44804,-117.32532 78.61024,-218.62833 78.94899,-377.92708 0.10487,-49.32936 0.78797,-89.09228 1.51794,-88.36204 10.32889,10.33267 30.45608,153.96154 30.4389,217.21384 -0.0203,74.40755 -17.7685,162.58027 -45.32107,225.15317 -15.16583,34.44216 -51.53544,87.49271 -84.08136,122.64529 -30.84501,33.31547 -97.72263,85.90149 -107.87075,84.81899 -3.49654,-0.37289 -12.79913,-1.46543 -20.67241,-2.42767 l 0,0 z"
     id="path4338"
     inkscape:connector-curvature="0" />
  <path
     style="fill:#f4982b;fill-opacity:1;stroke:#f4982b;stroke-width:0;stroke-opacity:1;stroke-miterlimit:4;stroke-dasharray:none"
     d="m 656.99425,389.72652 -50.72608,-24.41406 27.421,-16.62079 c 41.09841,-24.91111 71.0806,-46.5284 100.39834,-72.38763 42.5392,-37.52099 84.53582,-97.29834 80.73089,-114.91113 -1.13966,-5.27544 -5.16921,-0.73882 -13.25628,14.9244 -17.57722,34.04398 -67.83131,84.05379 -109.29093,108.75968 -32.47134,19.34974 -97.01561,48.57983 -107.64718,48.75004 -7.43814,0.11908 -23.7534,-38.5582 -26.17906,-62.06058 -2.92526,-28.34309 4.43705,-57.44346 21.14631,-83.5832 24.12941,-37.74772 44.73527,-50.80259 117.32417,-74.33089 21.30772,-6.90648 44.98067,-16.413381 52.60655,-21.126436 18.55857,-11.469827 58.99791,-54.267474 68.33122,-72.316102 l 7.50519,-14.5134357 9.1083,11.4229057 c 12.04359,15.104097 30.21242,62.473539 35.993,93.840278 10.80155,58.6117 3.18449,144.91359 -16.93228,191.84411 -10.83349,25.2735 -38.12277,61.05377 -60.63381,79.49988 -20.83211,17.07035 -55.35416,31.97896 -73.56617,31.77011 -6.3839,-0.0732 -34.43383,-11.11942 -62.33318,-24.54715 l 0,0 z"
     id="path4340"
     inkscape:connector-curvature="0" />
  <path
     style="fill:#f4982b;fill-opacity:1;stroke:#000000;stroke-width:4.237288;stroke-opacity:1"
     d=""
     id="path4342"
     inkscape:connector-curvature="0" />
  <path
     style="fill:#f4982b;fill-opacity:1;stroke:#f4982b;stroke-width:4.23728800000000039;stroke-opacity:1"
     d="M 508.82203,149.10135 C 497.59581,119.06594 481.37671,79.713983 472.7796,61.652542 464.18249,43.591102 458.49963,28.813559 460.15101,28.813559 c 6.09088,0 42.90828,33.178165 52.52974,47.337411 17.96838,26.44285 23.44521,45.20422 23.1316,79.23939 -0.50942,55.28609 -4.30628,54.40139 -26.99032,-6.28901 l 0,0 z"
     id="path4344"
     inkscape:connector-curvature="0" />
  <path
     style="fill:#ff0000;fill-opacity:0;stroke:none"
     d="M 315.77119,994.98559 C 234.4452,984.76097 173.44942,956.01339 116.43583,901.03805 69.094331,855.38898 30.34315,789.92729 14.455989,728.76521 2.2126657,681.63108 -0.36160169,616.26689 8.1151517,567.76259 34.663356,415.8528 151.27843,295.3527 296.15867,270.12289 c 50.73236,-8.83465 169.5787,0.46476 183.46997,14.35604 1.4353,1.43528 -1.50631,12.51358 -6.53686,24.61845 -5.03055,12.10486 -10.31407,29.31079 -11.74119,38.23539 -2.93716,18.36792 -4.11038,18.69721 -33.29127,9.34412 -14.10462,-4.52083 -36.76645,-6.80264 -67.79661,-6.82641 -74.17165,-0.0568 -125.04,19.91467 -178.78962,70.1948 -71.1167,66.52618 -103.213442,155.31866 -90.548162,250.49253 14.629972,109.93761 86.092202,200.92935 181.950932,231.67524 43.08895,13.82042 111.91519,15.70216 157.03113,4.29326 83.4061,-21.09161 149.24725,-79.82262 182.22191,-162.54385 23.59733,-59.19706 27.03894,-136.40816 8.68928,-194.94124 -4.58013,-14.60997 -8.35208,-26.81392 -8.38216,-27.11989 -0.0297,-0.30597 8.75953,-2.77573 19.53245,-5.48838 10.77289,-2.71264 28.65996,-9.52967 39.74907,-15.14893 l 20.16195,-10.21684 6.48318,17.82387 c 14.34597,39.44045 17.82894,64.98671 17.45059,127.99336 -0.33813,56.31673 -1.6939,67.90487 -11.89779,101.69491 -38.28361,126.77547 -141.40966,225.5756 -261.02564,250.07615 -37.63641,7.70894 -93.93966,10.52152 -127.11864,6.35012 l 0,0 z"
     id="path4358"
     inkscape:connector-curvature="0" />
  <path
     style="fill:#ff0000;fill-opacity:0;stroke:none"
     d="M 315.77119,994.98559 C 234.4452,984.76097 173.44942,956.01339 116.43583,901.03805 69.094331,855.38898 30.34315,789.92729 14.455989,728.76521 2.2126657,681.63108 -0.36160169,616.26689 8.1151517,567.76259 34.663356,415.8528 151.27843,295.3527 296.15867,270.12289 c 50.73236,-8.83465 169.5787,0.46476 183.46997,14.35604 1.4353,1.43528 -1.50631,12.51358 -6.53686,24.61845 -5.03055,12.10486 -10.31407,29.31079 -11.74119,38.23539 -2.93716,18.36792 -4.11038,18.69721 -33.29127,9.34412 -14.10462,-4.52083 -36.76645,-6.80264 -67.79661,-6.82641 -74.17165,-0.0568 -125.04,19.91467 -178.78962,70.1948 -71.1167,66.52618 -103.213442,155.31866 -90.548162,250.49253 14.629972,109.93761 86.092202,200.92935 181.950932,231.67524 43.08895,13.82042 111.91519,15.70216 157.03113,4.29326 83.4061,-21.09161 149.24725,-79.82262 182.22191,-162.54385 23.59733,-59.19706 27.03894,-136.40816 8.68928,-194.94124 -4.58013,-14.60997 -8.35208,-26.81392 -8.38216,-27.11989 -0.0297,-0.30597 8.75953,-2.77573 19.53245,-5.48838 10.77289,-2.71264 28.65996,-9.52967 39.74907,-15.14893 l 20.16195,-10.21684 6.48318,17.82387 c 14.34597,39.44045 17.82894,64.98671 17.45059,127.99336 -0.33813,56.31673 -1.6939,67.90487 -11.89779,101.69491 -38.28361,126.77547 -141.40966,225.5756 -261.02564,250.07615 -37.63641,7.70894 -93.93966,10.52152 -127.11864,6.35012 l 0,0 z"
     id="path4360"
     inkscape:connector-curvature="0" />
  <path
     style="fill:#ff0000;fill-opacity:0;stroke:none"
     d="M 315.77119,994.98559 C 234.4452,984.76097 173.44942,956.01339 116.43583,901.03805 69.094331,855.38898 30.34315,789.92729 14.455989,728.76521 2.2126657,681.63108 -0.36160169,616.26689 8.1151517,567.76259 34.663356,415.8528 151.27843,295.3527 296.15867,270.12289 c 50.73236,-8.83465 169.5787,0.46476 183.46997,14.35604 1.4353,1.43528 -1.50631,12.51358 -6.53686,24.61845 -5.03055,12.10486 -10.31407,29.31079 -11.74119,38.23539 -2.93716,18.36792 -4.11038,18.69721 -33.29127,9.34412 -14.10462,-4.52083 -36.76645,-6.80264 -67.79661,-6.82641 -74.17165,-0.0568 -125.04,19.91467 -178.78962,70.1948 -71.1167,66.52618 -103.213442,155.31866 -90.548162,250.49253 14.629972,109.93761 86.092202,200.92935 181.950932,231.67524 43.08895,13.82042 111.91519,15.70216 157.03113,4.29326 83.4061,-21.09161 149.24725,-79.82262 182.22191,-162.54385 23.59733,-59.19706 27.03894,-136.40816 8.68928,-194.94124 -4.58013,-14.60997 -8.35208,-26.81392 -8.38216,-27.11989 -0.0297,-0.30597 8.75953,-2.77573 19.53245,-5.48838 10.77289,-2.71264 28.65996,-9.52967 39.74907,-15.14893 l 20.16195,-10.21684 6.48318,17.82387 c 14.34597,39.44045 17.82894,64.98671 17.45059,127.99336 -0.33813,56.31673 -1.6939,67.90487 -11.89779,101.69491 -38.28361,126.77547 -141.40966,225.5756 -261.02564,250.07615 -37.63641,7.70894 -93.93966,10.52152 -127.11864,6.35012 l 0,0 z"
     id="path4362"
     inkscape:connector-curvature="0" />
  <path
     style="fill:#ff0000;fill-opacity:0;stroke:none"
     d="M 315.77119,994.98559 C 234.4452,984.76097 173.44942,956.01339 116.43583,901.03805 69.094331,855.38898 30.34315,789.92729 14.455989,728.76521 2.2126657,681.63108 -0.36160169,616.26689 8.1151517,567.76259 34.663356,415.8528 151.27843,295.3527 296.15867,270.12289 c 50.73236,-8.83465 169.5787,0.46476 183.46997,14.35604 1.4353,1.43528 -1.50631,12.51358 -6.53686,24.61845 -5.03055,12.10486 -10.31407,29.31079 -11.74119,38.23539 -2.93716,18.36792 -4.11038,18.69721 -33.29127,9.34412 -14.10462,-4.52083 -36.76645,-6.80264 -67.79661,-6.82641 -74.17165,-0.0568 -125.04,19.91467 -178.78962,70.1948 -71.1167,66.52618 -103.213442,155.31866 -90.548162,250.49253 14.629972,109.93761 86.092202,200.92935 181.950932,231.67524 43.08895,13.82042 111.91519,15.70216 157.03113,4.29326 83.4061,-21.09161 149.24725,-79.82262 182.22191,-162.54385 23.59733,-59.19706 27.03894,-136.40816 8.68928,-194.94124 -4.58013,-14.60997 -8.35208,-26.81392 -8.38216,-27.11989 -0.0297,-0.30597 8.75953,-2.77573 19.53245,-5.48838 10.77289,-2.71264 28.65996,-9.52967 39.74907,-15.14893 l 20.16195,-10.21684 6.48318,17.82387 c 14.34597,39.44045 17.82894,64.98671 17.45059,127.99336 -0.33813,56.31673 -1.6939,67.90487 -11.89779,101.69491 -38.28361,126.77547 -141.40966,225.5756 -261.02564,250.07615 -37.63641,7.70894 -93.93966,10.52152 -127.11864,6.35012 l 0,0 z"
     id="path4364"
     inkscape:connector-curvature="0" />
  <path
     style="fill:#ff0000;fill-opacity:0;stroke:none"
     d="M 315.77119,994.98559 C 234.4452,984.76097 173.44942,956.01339 116.43583,901.03805 69.094331,855.38898 30.34315,789.92729 14.455989,728.76521 2.2126657,681.63108 -0.36160169,616.26689 8.1151517,567.76259 34.663356,415.8528 151.27843,295.3527 296.15867,270.12289 c 50.73236,-8.83465 169.5787,0.46476 183.46997,14.35604 1.4353,1.43528 -1.50631,12.51358 -6.53686,24.61845 -5.03055,12.10486 -10.31407,29.31079 -11.74119,38.23539 -2.93716,18.36792 -4.11038,18.69721 -33.29127,9.34412 -14.10462,-4.52083 -36.76645,-6.80264 -67.79661,-6.82641 -74.17165,-0.0568 -125.04,19.91467 -178.78962,70.1948 -71.1167,66.52618 -103.213442,155.31866 -90.548162,250.49253 14.629972,109.93761 86.092202,200.92935 181.950932,231.67524 43.08895,13.82042 111.91519,15.70216 157.03113,4.29326 83.4061,-21.09161 149.24725,-79.82262 182.22191,-162.54385 23.59733,-59.19706 27.03894,-136.40816 8.68928,-194.94124 -4.58013,-14.60997 -8.35208,-26.81392 -8.38216,-27.11989 -0.0297,-0.30597 8.75953,-2.77573 19.53245,-5.48838 10.77289,-2.71264 28.65996,-9.52967 39.74907,-15.14893 l 20.16195,-10.21684 6.48318,17.82387 c 14.34597,39.44045 17.82894,64.98671 17.45059,127.99336 -0.33813,56.31673 -1.6939,67.90487 -11.89779,101.69491 -38.28361,126.77547 -141.40966,225.5756 -261.02564,250.07615 -37.63641,7.70894 -93.93966,10.52152 -127.11864,6.35012 l 0,0 z"
     id="path4366"
     inkscape:connector-curvature="0" />
  <path
     style="fill:#ff0000;fill-opacity:0;stroke:none"
     d="M 315.77119,994.98559 C 234.4452,984.76097 173.44942,956.01339 116.43583,901.03805 69.094331,855.38898 30.34315,789.92729 14.455989,728.76521 2.2126657,681.63108 -0.36160169,616.26689 8.1151517,567.76259 34.663356,415.8528 151.27843,295.3527 296.15867,270.12289 c 50.73236,-8.83465 169.5787,0.46476 183.46997,14.35604 1.4353,1.43528 -1.50631,12.51358 -6.53686,24.61845 -5.03055,12.10486 -10.31407,29.31079 -11.74119,38.23539 -2.93716,18.36792 -4.11038,18.69721 -33.29127,9.34412 -14.10462,-4.52083 -36.76645,-6.80264 -67.79661,-6.82641 -74.17165,-0.0568 -125.04,19.91467 -178.78962,70.1948 -71.1167,66.52618 -103.213442,155.31866 -90.548162,250.49253 14.629972,109.93761 86.092202,200.92935 181.950932,231.67524 43.08895,13.82042 111.91519,15.70216 157.03113,4.29326 83.4061,-21.09161 149.24725,-79.82262 182.22191,-162.54385 23.59733,-59.19706 27.03894,-136.40816 8.68928,-194.94124 -4.58013,-14.60997 -8.35208,-26.81392 -8.38216,-27.11989 -0.0297,-0.30597 8.75953,-2.77573 19.53245,-5.48838 10.77289,-2.71264 28.65996,-9.52967 39.74907,-15.14893 l 20.16195,-10.21684 6.48318,17.82387 c 14.34597,39.44045 17.82894,64.98671 17.45059,127.99336 -0.33813,56.31673 -1.6939,67.90487 -11.89779,101.69491 -38.28361,126.77547 -141.40966,225.5756 -261.02564,250.07615 -37.63641,7.70894 -93.93966,10.52152 -127.11864,6.35012 l 0,0 z"
     id="path4368"
     inkscape:connector-curvature="0" />
  <path
     style="fill:#ff0000;fill-opacity:0;stroke:none"
     d="M 315.77119,994.98559 C 234.4452,984.76097 173.44942,956.01339 116.43583,901.03805 69.094331,855.38898 30.34315,789.92729 14.455989,728.76521 2.2126657,681.63108 -0.36160169,616.26689 8.1151517,567.76259 34.663356,415.8528 151.27843,295.3527 296.15867,270.12289 c 50.73236,-8.83465 169.5787,0.46476 183.46997,14.35604 1.4353,1.43528 -1.50631,12.51358 -6.53686,24.61845 -5.03055,12.10486 -10.31407,29.31079 -11.74119,38.23539 -2.93716,18.36792 -4.11038,18.69721 -33.29127,9.34412 -14.10462,-4.52083 -36.76645,-6.80264 -67.79661,-6.82641 -74.17165,-0.0568 -125.04,19.91467 -178.78962,70.1948 -71.1167,66.52618 -103.213442,155.31866 -90.548162,250.49253 14.629972,109.93761 86.092202,200.92935 181.950932,231.67524 43.08895,13.82042 111.91519,15.70216 157.03113,4.29326 83.4061,-21.09161 149.24725,-79.82262 182.22191,-162.54385 23.59733,-59.19706 27.03894,-136.40816 8.68928,-194.94124 -4.58013,-14.60997 -8.35208,-26.81392 -8.38216,-27.11989 -0.0297,-0.30597 8.75953,-2.77573 19.53245,-5.48838 10.77289,-2.71264 28.65996,-9.52967 39.74907,-15.14893 l 20.16195,-10.21684 6.48318,17.82387 c 14.34597,39.44045 17.82894,64.98671 17.45059,127.99336 -0.33813,56.31673 -1.6939,67.90487 -11.89779,101.69491 -38.28361,126.77547 -141.40966,225.5756 -261.02564,250.07615 -37.63641,7.70894 -93.93966,10.52152 -127.11864,6.35012 l 0,0 z"
     id="path4370"
     inkscape:connector-curvature="0" />
  <path
     style="fill:#ff0000;fill-opacity:0;stroke:none"
     d="M 315.77119,994.98559 C 234.4452,984.76097 173.44942,956.01339 116.43583,901.03805 69.094331,855.38898 30.34315,789.92729 14.455989,728.76521 2.2126657,681.63108 -0.36160169,616.26689 8.1151517,567.76259 34.663356,415.8528 151.27843,295.3527 296.15867,270.12289 c 50.73236,-8.83465 169.5787,0.46476 183.46997,14.35604 1.4353,1.43528 -1.50631,12.51358 -6.53686,24.61845 -5.03055,12.10486 -10.31407,29.31079 -11.74119,38.23539 -2.93716,18.36792 -4.11038,18.69721 -33.29127,9.34412 -14.10462,-4.52083 -36.76645,-6.80264 -67.79661,-6.82641 -74.17165,-0.0568 -125.04,19.91467 -178.78962,70.1948 -71.1167,66.52618 -103.213442,155.31866 -90.548162,250.49253 14.629972,109.93761 86.092202,200.92935 181.950932,231.67524 43.08895,13.82042 111.91519,15.70216 157.03113,4.29326 83.4061,-21.09161 149.24725,-79.82262 182.22191,-162.54385 23.59733,-59.19706 27.03894,-136.40816 8.68928,-194.94124 -4.58013,-14.60997 -8.35208,-26.81392 -8.38216,-27.11989 -0.0297,-0.30597 8.75953,-2.77573 19.53245,-5.48838 10.77289,-2.71264 28.65996,-9.52967 39.74907,-15.14893 l 20.16195,-10.21684 6.48318,17.82387 c 14.34597,39.44045 17.82894,64.98671 17.45059,127.99336 -0.33813,56.31673 -1.6939,67.90487 -11.89779,101.69491 -38.28361,126.77547 -141.40966,225.5756 -261.02564,250.07615 -37.63641,7.70894 -93.93966,10.52152 -127.11864,6.35012 l 0,0 z"
     id="path4372"
     inkscape:connector-curvature="0" />
  <path
     style="fill:#008000;fill-opacity:0;stroke:none"
     d="M 315.77119,994.98559 C 234.4452,984.76097 173.44942,956.01339 116.43583,901.03805 69.094331,855.38898 30.34315,789.92729 14.455989,728.76521 2.2126657,681.63108 -0.36160169,616.26689 8.1151517,567.76259 34.663356,415.8528 151.27843,295.3527 296.15867,270.12289 c 50.73236,-8.83465 169.5787,0.46476 183.46997,14.35604 1.4353,1.43528 -1.50631,12.51358 -6.53686,24.61845 -5.03055,12.10486 -10.31407,29.31079 -11.74119,38.23539 -2.93716,18.36792 -4.11038,18.69721 -33.29127,9.34412 -14.10462,-4.52083 -36.76645,-6.80264 -67.79661,-6.82641 -74.17165,-0.0568 -125.04,19.91467 -178.78962,70.1948 -71.1167,66.52618 -103.213442,155.31866 -90.548162,250.49253 14.629972,109.93761 86.092202,200.92935 181.950932,231.67524 43.08895,13.82042 111.91519,15.70216 157.03113,4.29326 83.4061,-21.09161 149.24725,-79.82262 182.22191,-162.54385 23.59733,-59.19706 27.03894,-136.40816 8.68928,-194.94124 -4.58013,-14.60997 -8.35208,-26.81392 -8.38216,-27.11989 -0.0297,-0.30597 8.75953,-2.77573 19.53245,-5.48838 10.77289,-2.71264 28.65996,-9.52967 39.74907,-15.14893 l 20.16195,-10.21684 6.48318,17.82387 c 14.34597,39.44045 17.82894,64.98671 17.45059,127.99336 -0.33813,56.31673 -1.6939,67.90487 -11.89779,101.69491 -38.28361,126.77547 -141.40966,225.5756 -261.02564,250.07615 -37.63641,7.70894 -93.93966,10.52152 -127.11864,6.35012 l 0,0 z"
     id="path4374"
     inkscape:connector-curvature="0" />
  <path
     style="fill:#008000;fill-opacity:0;stroke:none"
     d="M 315.77119,994.98559 C 234.4452,984.76097 173.44942,956.01339 116.43583,901.03805 69.094331,855.38898 30.34315,789.92729 14.455989,728.76521 2.2126657,681.63108 -0.36160169,616.26689 8.1151517,567.76259 34.663356,415.8528 151.27843,295.3527 296.15867,270.12289 c 50.73236,-8.83465 169.5787,0.46476 183.46997,14.35604 1.4353,1.43528 -1.50631,12.51358 -6.53686,24.61845 -5.03055,12.10486 -10.31407,29.31079 -11.74119,38.23539 -2.93716,18.36792 -4.11038,18.69721 -33.29127,9.34412 -14.10462,-4.52083 -36.76645,-6.80264 -67.79661,-6.82641 -74.17165,-0.0568 -125.04,19.91467 -178.78962,70.1948 -71.1167,66.52618 -103.213442,155.31866 -90.548162,250.49253 14.629972,109.93761 86.092202,200.92935 181.950932,231.67524 43.08895,13.82042 111.91519,15.70216 157.03113,4.29326 83.4061,-21.09161 149.24725,-79.82262 182.22191,-162.54385 23.59733,-59.19706 27.03894,-136.40816 8.68928,-194.94124 -4.58013,-14.60997 -8.35208,-26.81392 -8.38216,-27.11989 -0.0297,-0.30597 8.75953,-2.77573 19.53245,-5.48838 10.77289,-2.71264 28.65996,-9.52967 39.74907,-15.14893 l 20.16195,-10.21684 6.48318,17.82387 c 14.34597,39.44045 17.82894,64.98671 17.45059,127.99336 -0.33813,56.31673 -1.6939,67.90487 -11.89779,101.69491 -38.28361,126.77547 -141.40966,225.5756 -261.02564,250.07615 -37.63641,7.70894 -93.93966,10.52152 -127.11864,6.35012 l 0,0 z"
     id="path4376"
     inkscape:connector-curvature="0" />
  <path
     style="fill:#008000;fill-opacity:0;stroke:none"
     d="M 315.77119,994.98559 C 234.4452,984.76097 173.44942,956.01339 116.43583,901.03805 69.094331,855.38898 30.34315,789.92729 14.455989,728.76521 2.2126657,681.63108 -0.36160169,616.26689 8.1151517,567.76259 34.663356,415.8528 151.27843,295.3527 296.15867,270.12289 c 50.73236,-8.83465 169.5787,0.46476 183.46997,14.35604 1.4353,1.43528 -1.50631,12.51358 -6.53686,24.61845 -5.03055,12.10486 -10.31407,29.31079 -11.74119,38.23539 -2.93716,18.36792 -4.11038,18.69721 -33.29127,9.34412 -14.10462,-4.52083 -36.76645,-6.80264 -67.79661,-6.82641 -74.17165,-0.0568 -125.04,19.91467 -178.78962,70.1948 -71.1167,66.52618 -103.213442,155.31866 -90.548162,250.49253 14.629972,109.93761 86.092202,200.92935 181.950932,231.67524 43.08895,13.82042 111.91519,15.70216 157.03113,4.29326 83.4061,-21.09161 149.24725,-79.82262 182.22191,-162.54385 23.59733,-59.19706 27.03894,-136.40816 8.68928,-194.94124 -4.58013,-14.60997 -8.35208,-26.81392 -8.38216,-27.11989 -0.0297,-0.30597 8.75953,-2.77573 19.53245,-5.48838 10.77289,-2.71264 28.65996,-9.52967 39.74907,-15.14893 l 20.16195,-10.21684 6.48318,17.82387 c 14.34597,39.44045 17.82894,64.98671 17.45059,127.99336 -0.33813,56.31673 -1.6939,67.90487 -11.89779,101.69491 -38.28361,126.77547 -141.40966,225.5756 -261.02564,250.07615 -37.63641,7.70894 -93.93966,10.52152 -127.11864,6.35012 l 0,0 z"
     id="path4378"
     inkscape:connector-curvature="0" />
  <path
     style="fill:#008000;fill-opacity:0;stroke:none"
     d="M 315.77119,994.98559 C 234.4452,984.76097 173.44942,956.01339 116.43583,901.03805 69.094331,855.38898 30.34315,789.92729 14.455989,728.76521 2.2126657,681.63108 -0.36160169,616.26689 8.1151517,567.76259 34.663356,415.8528 151.27843,295.3527 296.15867,270.12289 c 50.73236,-8.83465 169.5787,0.46476 183.46997,14.35604 1.4353,1.43528 -1.50631,12.51358 -6.53686,24.61845 -5.03055,12.10486 -10.31407,29.31079 -11.74119,38.23539 -2.93716,18.36792 -4.11038,18.69721 -33.29127,9.34412 -14.10462,-4.52083 -36.76645,-6.80264 -67.79661,-6.82641 -74.17165,-0.0568 -125.04,19.91467 -178.78962,70.1948 -71.1167,66.52618 -103.213442,155.31866 -90.548162,250.49253 14.629972,109.93761 86.092202,200.92935 181.950932,231.67524 43.08895,13.82042 111.91519,15.70216 157.03113,4.29326 83.4061,-21.09161 149.24725,-79.82262 182.22191,-162.54385 23.59733,-59.19706 27.03894,-136.40816 8.68928,-194.94124 -4.58013,-14.60997 -8.35208,-26.81392 -8.38216,-27.11989 -0.0297,-0.30597 8.75953,-2.77573 19.53245,-5.48838 10.77289,-2.71264 28.65996,-9.52967 39.74907,-15.14893 l 20.16195,-10.21684 6.48318,17.82387 c 14.34597,39.44045 17.82894,64.98671 17.45059,127.99336 -0.33813,56.31673 -1.6939,67.90487 -11.89779,101.69491 -38.28361,126.77547 -141.40966,225.5756 -261.02564,250.07615 -37.63641,7.70894 -93.93966,10.52152 -127.11864,6.35012 l 0,0 z"
     id="path4380"
     inkscape:connector-curvature="0" />
  <path
     style="fill:#008000;fill-opacity:0;stroke:none"
     d="M 315.77119,994.98559 C 234.4452,984.76097 173.44942,956.01339 116.43583,901.03805 69.094331,855.38898 30.34315,789.92729 14.455989,728.76521 2.2126657,681.63108 -0.36160169,616.26689 8.1151517,567.76259 34.663356,415.8528 151.27843,295.3527 296.15867,270.12289 c 50.73236,-8.83465 169.5787,0.46476 183.46997,14.35604 1.4353,1.43528 -1.50631,12.51358 -6.53686,24.61845 -5.03055,12.10486 -10.31407,29.31079 -11.74119,38.23539 -2.93716,18.36792 -4.11038,18.69721 -33.29127,9.34412 -14.10462,-4.52083 -36.76645,-6.80264 -67.79661,-6.82641 -74.17165,-0.0568 -125.04,19.91467 -178.78962,70.1948 -71.1167,66.52618 -103.213442,155.31866 -90.548162,250.49253 14.629972,109.93761 86.092202,200.92935 181.950932,231.67524 43.08895,13.82042 111.91519,15.70216 157.03113,4.29326 83.4061,-21.09161 149.24725,-79.82262 182.22191,-162.54385 23.59733,-59.19706 27.03894,-136.40816 8.68928,-194.94124 -4.58013,-14.60997 -8.35208,-26.81392 -8.38216,-27.11989 -0.0297,-0.30597 8.75953,-2.77573 19.53245,-5.48838 10.77289,-2.71264 28.65996,-9.52967 39.74907,-15.14893 l 20.16195,-10.21684 6.48318,17.82387 c 14.34597,39.44045 17.82894,64.98671 17.45059,127.99336 -0.33813,56.31673 -1.6939,67.90487 -11.89779,101.69491 -38.28361,126.77547 -141.40966,225.5756 -261.02564,250.07615 -37.63641,7.70894 -93.93966,10.52152 -127.11864,6.35012 l 0,0 z"
     id="path4382"
     inkscape:connector-curvature="0" />
  <path
     style="fill:#008000;fill-opacity:0;stroke:none"
     d="M 315.77119,994.98559 C 234.4452,984.76097 173.44942,956.01339 116.43583,901.03805 69.094331,855.38898 30.34315,789.92729 14.455989,728.76521 2.2126657,681.63108 -0.36160169,616.26689 8.1151517,567.76259 34.663356,415.8528 151.27843,295.3527 296.15867,270.12289 c 50.73236,-8.83465 169.5787,0.46476 183.46997,14.35604 1.4353,1.43528 -1.50631,12.51358 -6.53686,24.61845 -5.03055,12.10486 -10.31407,29.31079 -11.74119,38.23539 -2.93716,18.36792 -4.11038,18.69721 -33.29127,9.34412 -14.10462,-4.52083 -36.76645,-6.80264 -67.79661,-6.82641 -74.17165,-0.0568 -125.04,19.91467 -178.78962,70.1948 -71.1167,66.52618 -103.213442,155.31866 -90.548162,250.49253 14.629972,109.93761 86.092202,200.92935 181.950932,231.67524 43.08895,13.82042 111.91519,15.70216 157.03113,4.29326 83.4061,-21.09161 149.24725,-79.82262 182.22191,-162.54385 23.59733,-59.19706 27.03894,-136.40816 8.68928,-194.94124 -4.58013,-14.60997 -8.35208,-26.81392 -8.38216,-27.11989 -0.0297,-0.30597 8.75953,-2.77573 19.53245,-5.48838 10.77289,-2.71264 28.65996,-9.52967 39.74907,-15.14893 l 20.16195,-10.21684 6.48318,17.82387 c 14.34597,39.44045 17.82894,64.98671 17.45059,127.99336 -0.33813,56.31673 -1.6939,67.90487 -11.89779,101.69491 -38.28361,126.77547 -141.40966,225.5756 -261.02564,250.07615 -37.63641,7.70894 -93.93966,10.52152 -127.11864,6.35012 l 0,0 z"
     id="path4384"
     inkscape:connector-curvature="0" />
  <path
     style="fill:#008000;fill-opacity:0;stroke:none"
     d="M 661.54058,389.02685 C 636.14172,377.43526 614.7467,367.3371 613.9961,366.5865 c -0.75061,-0.75061 19.07689,-14.53241 44.06111,-30.62623 77.28562,-49.78427 161.34065,-142.15057 156.94349,-172.4619 -1.08565,-7.48384 -6.29852,-2.34613 -26.77189,26.38587 -35.56539,49.91193 -76.67095,83.45706 -140.86193,114.95357 -28.53338,14.00044 -55.2283,24.83642 -59.32203,24.07995 -11.25934,-2.08057 -23.8555,-32.09473 -25.75538,-61.36998 -2.16159,-33.30807 7.31185,-62.60603 29.19533,-90.29072 20.63265,-26.10226 39.12442,-36.86059 105.04207,-61.11241 59.61879,-21.934404 78.9556,-35.513959 109.58827,-76.959912 23.01667,-31.1415146 23.38655,-31.0580223 41.70542,9.414217 17.13999,37.867693 23.8003,72.036815 23.53637,120.747665 -0.44798,82.67657 -12.68255,129.14685 -45.49279,172.79411 -23.29631,30.99094 -39.75713,45.19049 -67.29634,58.05164 -30.71253,14.34313 -44.64777,12.73952 -97.02722,-11.16552 z"
     id="path4386"
     inkscape:connector-curvature="0" />
  <path
     style="fill:#008000;fill-opacity:0;stroke:none"
     d="M 661.54058,389.02685 C 636.14172,377.43526 614.7467,367.3371 613.9961,366.5865 c -0.75061,-0.75061 19.07689,-14.53241 44.06111,-30.62623 77.28562,-49.78427 161.34065,-142.15057 156.94349,-172.4619 -1.08565,-7.48384 -6.29852,-2.34613 -26.77189,26.38587 -35.56539,49.91193 -76.67095,83.45706 -140.86193,114.95357 -28.53338,14.00044 -55.2283,24.83642 -59.32203,24.07995 -11.25934,-2.08057 -23.8555,-32.09473 -25.75538,-61.36998 -2.16159,-33.30807 7.31185,-62.60603 29.19533,-90.29072 20.63265,-26.10226 39.12442,-36.86059 105.04207,-61.11241 59.61879,-21.934404 78.9556,-35.513959 109.58827,-76.959912 23.01667,-31.1415146 23.38655,-31.0580223 41.70542,9.414217 17.13999,37.867693 23.8003,72.036815 23.53637,120.747665 -0.44798,82.67657 -12.68255,129.14685 -45.49279,172.79411 -23.29631,30.99094 -39.75713,45.19049 -67.29634,58.05164 -30.71253,14.34313 -44.64777,12.73952 -97.02722,-11.16552 z"
     id="path4388"
     inkscape:connector-curvature="0" />
  <path
     style="fill:#0000ff;fill-opacity:0;stroke:none"
     d="M 315.37137,994.77233 C 235.6057,985.44771 173.12672,956.05301 116.39264,901.15809 47.197864,834.20644 8.8454653,749.37657 3.6079275,651.69492 -6.1474371,469.75439 115.42525,306.78802 286.81503,272.06001 c 54.39051,-11.02093 177.25611,-3.13857 192.76116,12.36645 1.40639,1.40642 -1.42581,12.63624 -6.29382,24.95516 -4.86796,12.31892 -10.0964,29.54846 -11.61873,38.28787 -3.13347,17.98923 -4.40665,18.33372 -33.60432,9.09242 -13.94139,-4.41257 -37.12555,-6.71784 -67.79661,-6.74121 -74.42484,-0.0567 -125.08177,19.78352 -178.78962,70.02458 -71.24699,66.64806 -103.499187,156.72339 -90.359857,252.3609 15.076547,109.73797 87.116897,199.95056 184.011737,230.42878 43.09467,13.55542 127.08106,13.58784 170.05948,0.0657 52.97462,-16.66729 105.17555,-55.94492 138.02381,-103.85339 47.37123,-69.08992 62.59818,-170.31668 37.60992,-250.02599 -4.58013,-14.60997 -8.35208,-26.81392 -8.38216,-27.11988 -0.0297,-0.30598 8.75953,-2.77574 19.53245,-5.48838 10.77289,-2.71265 28.62674,-9.51284 39.67522,-15.11153 l 20.08817,-10.17943 4.72195,10.36357 c 17.07577,37.47722 26.42856,133.9719 18.13424,187.09481 -17.97292,115.11195 -87.52665,215.37551 -186.95246,269.49695 -35.19123,19.15598 -76.81712,31.39759 -125,36.76081 -42.0077,4.67589 -46.73281,4.67233 -87.26422,-0.0657 l 0,-1.7e-4 z"
     id="path4390"
     inkscape:connector-curvature="0" />
  <path
     style="fill:#808000;fill-opacity:0;stroke:none"
     d="M 315.37137,994.77233 C 235.6057,985.44771 173.12672,956.05301 116.39264,901.15809 47.197864,834.20644 8.8454653,749.37657 3.6079275,651.69492 -6.1474371,469.75439 115.42525,306.78802 286.81503,272.06001 c 54.39051,-11.02093 177.25611,-3.13857 192.76116,12.36645 1.40639,1.40642 -1.42581,12.63624 -6.29382,24.95516 -4.86796,12.31892 -10.0964,29.54846 -11.61873,38.28787 -3.13347,17.98923 -4.40665,18.33372 -33.60432,9.09242 -13.94139,-4.41257 -37.12555,-6.71784 -67.79661,-6.74121 -74.42484,-0.0567 -125.08177,19.78352 -178.78962,70.02458 -71.24699,66.64806 -103.499187,156.72339 -90.359857,252.3609 15.076547,109.73797 87.116897,199.95056 184.011737,230.42878 43.09467,13.55542 127.08106,13.58784 170.05948,0.0657 52.97462,-16.66729 105.17555,-55.94492 138.02381,-103.85339 47.37123,-69.08992 62.59818,-170.31668 37.60992,-250.02599 -4.58013,-14.60997 -8.35208,-26.81392 -8.38216,-27.11988 -0.0297,-0.30598 8.75953,-2.77574 19.53245,-5.48838 10.77289,-2.71265 28.62674,-9.51284 39.67522,-15.11153 l 20.08817,-10.17943 4.72195,10.36357 c 17.07577,37.47722 26.42856,133.9719 18.13424,187.09481 -17.97292,115.11195 -87.52665,215.37551 -186.95246,269.49695 -35.19123,19.15598 -76.81712,31.39759 -125,36.76081 -42.0077,4.67589 -46.73281,4.67233 -87.26422,-0.0657 l 0,-1.7e-4 z"
     id="path4392"
     inkscape:connector-curvature="0" />
  <path
     style="fill:#808000;fill-opacity:0;stroke:none"
     d="M 315.77119,994.98559 C 234.4452,984.76097 173.44942,956.01339 116.43583,901.03805 69.094331,855.38898 30.34315,789.92729 14.455989,728.76521 2.2126657,681.63108 -0.36160169,616.26689 8.1151517,567.76259 34.663356,415.8528 151.27843,295.3527 296.15867,270.12289 c 50.73236,-8.83465 169.5787,0.46476 183.46997,14.35604 1.4353,1.43528 -1.50631,12.51358 -6.53686,24.61845 -5.03055,12.10486 -10.31407,29.31079 -11.74119,38.23539 -2.93716,18.36792 -4.11038,18.69721 -33.29127,9.34412 -14.10462,-4.52083 -36.76645,-6.80264 -67.79661,-6.82641 -74.17165,-0.0568 -125.04,19.91467 -178.78962,70.1948 -71.1167,66.52618 -103.213442,155.31866 -90.548162,250.49253 14.629972,109.93761 86.092202,200.92935 181.950932,231.67524 43.08895,13.82042 111.91519,15.70216 157.03113,4.29326 83.4061,-21.09161 149.24725,-79.82262 182.22191,-162.54385 23.59733,-59.19706 27.03894,-136.40816 8.68928,-194.94124 -4.58013,-14.60997 -8.35208,-26.81392 -8.38216,-27.11989 -0.0297,-0.30597 8.75953,-2.77573 19.53245,-5.48838 10.77289,-2.71264 28.65996,-9.52967 39.74907,-15.14893 l 20.16195,-10.21684 6.48318,17.82387 c 14.34597,39.44045 17.82894,64.98671 17.45059,127.99336 -0.33813,56.31673 -1.6939,67.90487 -11.89779,101.69491 -38.28361,126.77547 -141.40966,225.5756 -261.02564,250.07615 -37.63641,7.70894 -93.93966,10.52152 -127.11864,6.35012 l 0,0 z"
     id="path4394"
     inkscape:connector-curvature="0" />
  <path
     style="fill:#808000;fill-opacity:0;stroke:none"
     d="M 315.77119,994.98559 C 234.4452,984.76097 173.44942,956.01339 116.43583,901.03805 69.094331,855.38898 30.34315,789.92729 14.455989,728.76521 2.2126657,681.63108 -0.36160169,616.26689 8.1151517,567.76259 34.663356,415.8528 151.27843,295.3527 296.15867,270.12289 c 50.73236,-8.83465 169.5787,0.46476 183.46997,14.35604 1.4353,1.43528 -1.50631,12.51358 -6.53686,24.61845 -5.03055,12.10486 -10.31407,29.31079 -11.74119,38.23539 -2.93716,18.36792 -4.11038,18.69721 -33.29127,9.34412 -14.10462,-4.52083 -36.76645,-6.80264 -67.79661,-6.82641 -74.17165,-0.0568 -125.04,19.91467 -178.78962,70.1948 -71.1167,66.52618 -103.213442,155.31866 -90.548162,250.49253 14.629972,109.93761 86.092202,200.92935 181.950932,231.67524 43.08895,13.82042 111.91519,15.70216 157.03113,4.29326 83.4061,-21.09161 149.24725,-79.82262 182.22191,-162.54385 23.59733,-59.19706 27.03894,-136.40816 8.68928,-194.94124 -4.58013,-14.60997 -8.35208,-26.81392 -8.38216,-27.11989 -0.0297,-0.30597 8.75953,-2.77573 19.53245,-5.48838 10.77289,-2.71264 28.65996,-9.52967 39.74907,-15.14893 l 20.16195,-10.21684 6.48318,17.82387 c 14.34597,39.44045 17.82894,64.98671 17.45059,127.99336 -0.33813,56.31673 -1.6939,67.90487 -11.89779,101.69491 -38.28361,126.77547 -141.40966,225.5756 -261.02564,250.07615 -37.63641,7.70894 -93.93966,10.52152 -127.11864,6.35012 l 0,0 z"
     id="path4396"
     inkscape:connector-curvature="0" />
  <path
     style="fill:#808000;fill-opacity:0;stroke:none"
     d="M 315.77119,994.98559 C 234.4452,984.76097 173.44942,956.01339 116.43583,901.03805 69.094331,855.38898 30.34315,789.92729 14.455989,728.76521 2.2126657,681.63108 -0.36160169,616.26689 8.1151517,567.76259 34.663356,415.8528 151.27843,295.3527 296.15867,270.12289 c 50.73236,-8.83465 169.5787,0.46476 183.46997,14.35604 1.4353,1.43528 -1.50631,12.51358 -6.53686,24.61845 -5.03055,12.10486 -10.31407,29.31079 -11.74119,38.23539 -2.93716,18.36792 -4.11038,18.69721 -33.29127,9.34412 -14.10462,-4.52083 -36.76645,-6.80264 -67.79661,-6.82641 -74.17165,-0.0568 -125.04,19.91467 -178.78962,70.1948 -71.1167,66.52618 -103.213442,155.31866 -90.548162,250.49253 14.629972,109.93761 86.092202,200.92935 181.950932,231.67524 43.08895,13.82042 111.91519,15.70216 157.03113,4.29326 83.4061,-21.09161 149.24725,-79.82262 182.22191,-162.54385 23.59733,-59.19706 27.03894,-136.40816 8.68928,-194.94124 -4.58013,-14.60997 -8.35208,-26.81392 -8.38216,-27.11989 -0.0297,-0.30597 8.75953,-2.77573 19.53245,-5.48838 10.77289,-2.71264 28.65996,-9.52967 39.74907,-15.14893 l 20.16195,-10.21684 6.48318,17.82387 c 14.34597,39.44045 17.82894,64.98671 17.45059,127.99336 -0.33813,56.31673 -1.6939,67.90487 -11.89779,101.69491 -38.28361,126.77547 -141.40966,225.5756 -261.02564,250.07615 -37.63641,7.70894 -93.93966,10.52152 -127.11864,6.35012 l 0,0 z"
     id="path4398"
     inkscape:connector-curvature="0" />
  <path
     style="fill:#808000;fill-opacity:0;stroke:none"
     d="M 315.77119,994.98559 C 234.4452,984.76097 173.44942,956.01339 116.43583,901.03805 69.094331,855.38898 30.34315,789.92729 14.455989,728.76521 2.2126657,681.63108 -0.36160169,616.26689 8.1151517,567.76259 34.663356,415.8528 151.27843,295.3527 296.15867,270.12289 c 50.73236,-8.83465 169.5787,0.46476 183.46997,14.35604 1.4353,1.43528 -1.50631,12.51358 -6.53686,24.61845 -5.03055,12.10486 -10.31407,29.31079 -11.74119,38.23539 -2.93716,18.36792 -4.11038,18.69721 -33.29127,9.34412 -14.10462,-4.52083 -36.76645,-6.80264 -67.79661,-6.82641 -74.17165,-0.0568 -125.04,19.91467 -178.78962,70.1948 -71.1167,66.52618 -103.213442,155.31866 -90.548162,250.49253 14.629972,109.93761 86.092202,200.92935 181.950932,231.67524 43.08895,13.82042 111.91519,15.70216 157.03113,4.29326 83.4061,-21.09161 149.24725,-79.82262 182.22191,-162.54385 23.59733,-59.19706 27.03894,-136.40816 8.68928,-194.94124 -4.58013,-14.60997 -8.35208,-26.81392 -8.38216,-27.11989 -0.0297,-0.30597 8.75953,-2.77573 19.53245,-5.48838 10.77289,-2.71264 28.65996,-9.52967 39.74907,-15.14893 l 20.16195,-10.21684 6.48318,17.82387 c 14.34597,39.44045 17.82894,64.98671 17.45059,127.99336 -0.33813,56.31673 -1.6939,67.90487 -11.89779,101.69491 -38.28361,126.77547 -141.40966,225.5756 -261.02564,250.07615 -37.63641,7.70894 -93.93966,10.52152 -127.11864,6.35012 l 0,0 z"
     id="path4400"
     inkscape:connector-curvature="0" />
  <path
     style="fill:#808000;fill-opacity:0;stroke:none"
     d="M 315.77119,994.98559 C 234.4452,984.76097 173.44942,956.01339 116.43583,901.03805 69.094331,855.38898 30.34315,789.92729 14.455989,728.76521 2.2126657,681.63108 -0.36160169,616.26689 8.1151517,567.76259 34.663356,415.8528 151.27843,295.3527 296.15867,270.12289 c 50.73236,-8.83465 169.5787,0.46476 183.46997,14.35604 1.4353,1.43528 -1.50631,12.51358 -6.53686,24.61845 -5.03055,12.10486 -10.31407,29.31079 -11.74119,38.23539 -2.93716,18.36792 -4.11038,18.69721 -33.29127,9.34412 -14.10462,-4.52083 -36.76645,-6.80264 -67.79661,-6.82641 -74.17165,-0.0568 -125.04,19.91467 -178.78962,70.1948 -71.1167,66.52618 -103.213442,155.31866 -90.548162,250.49253 14.629972,109.93761 86.092202,200.92935 181.950932,231.67524 43.08895,13.82042 111.91519,15.70216 157.03113,4.29326 83.4061,-21.09161 149.24725,-79.82262 182.22191,-162.54385 23.59733,-59.19706 27.03894,-136.40816 8.68928,-194.94124 -4.58013,-14.60997 -8.35208,-26.81392 -8.38216,-27.11989 -0.0297,-0.30597 8.75953,-2.77573 19.53245,-5.48838 10.77289,-2.71264 28.65996,-9.52967 39.74907,-15.14893 l 20.16195,-10.21684 6.48318,17.82387 c 14.34597,39.44045 17.82894,64.98671 17.45059,127.99336 -0.33813,56.31673 -1.6939,67.90487 -11.89779,101.69491 -38.28361,126.77547 -141.40966,225.5756 -261.02564,250.07615 -37.63641,7.70894 -93.93966,10.52152 -127.11864,6.35012 l 0,0 z"
     id="path4402"
     inkscape:connector-curvature="0" />
  <path
     style="fill:#808000;fill-opacity:0;stroke:none"
     d="M 315.77119,994.98559 C 234.4452,984.76097 173.44942,956.01339 116.43583,901.03805 69.094331,855.38898 30.34315,789.92729 14.455989,728.76521 2.2126657,681.63108 -0.36160169,616.26689 8.1151517,567.76259 34.663356,415.8528 151.27843,295.3527 296.15867,270.12289 c 50.73236,-8.83465 169.5787,0.46476 183.46997,14.35604 1.4353,1.43528 -1.50631,12.51358 -6.53686,24.61845 -5.03055,12.10486 -10.31407,29.31079 -11.74119,38.23539 -2.93716,18.36792 -4.11038,18.69721 -33.29127,9.34412 -14.10462,-4.52083 -36.76645,-6.80264 -67.79661,-6.82641 -74.17165,-0.0568 -125.04,19.91467 -178.78962,70.1948 -71.1167,66.52618 -103.213442,155.31866 -90.548162,250.49253 14.629972,109.93761 86.092202,200.92935 181.950932,231.67524 43.08895,13.82042 111.91519,15.70216 157.03113,4.29326 83.4061,-21.09161 149.24725,-79.82262 182.22191,-162.54385 23.59733,-59.19706 27.03894,-136.40816 8.68928,-194.94124 -4.58013,-14.60997 -8.35208,-26.81392 -8.38216,-27.11989 -0.0297,-0.30597 8.75953,-2.77573 19.53245,-5.48838 10.77289,-2.71264 28.65996,-9.52967 39.74907,-15.14893 l 20.16195,-10.21684 6.48318,17.82387 c 14.34597,39.44045 17.82894,64.98671 17.45059,127.99336 -0.33813,56.31673 -1.6939,67.90487 -11.89779,101.69491 -38.28361,126.77547 -141.40966,225.5756 -261.02564,250.07615 -37.63641,7.70894 -93.93966,10.52152 -127.11864,6.35012 l 0,0 z"
     id="path4404"
     inkscape:connector-curvature="0" />
  <path
     style="fill:#808000;fill-opacity:0;stroke:none"
     d="M 315.77119,994.98559 C 234.4452,984.76097 173.44942,956.01339 116.43583,901.03805 69.094331,855.38898 30.34315,789.92729 14.455989,728.76521 2.2126657,681.63108 -0.36160169,616.26689 8.1151517,567.76259 34.663356,415.8528 151.27843,295.3527 296.15867,270.12289 c 50.73236,-8.83465 169.5787,0.46476 183.46997,14.35604 1.4353,1.43528 -1.50631,12.51358 -6.53686,24.61845 -5.03055,12.10486 -10.31407,29.31079 -11.74119,38.23539 -2.93716,18.36792 -4.11038,18.69721 -33.29127,9.34412 -14.10462,-4.52083 -36.76645,-6.80264 -67.79661,-6.82641 -74.17165,-0.0568 -125.04,19.91467 -178.78962,70.1948 -71.1167,66.52618 -103.213442,155.31866 -90.548162,250.49253 14.629972,109.93761 86.092202,200.92935 181.950932,231.67524 43.08895,13.82042 111.91519,15.70216 157.03113,4.29326 83.4061,-21.09161 149.24725,-79.82262 182.22191,-162.54385 23.59733,-59.19706 27.03894,-136.40816 8.68928,-194.94124 -4.58013,-14.60997 -8.35208,-26.81392 -8.38216,-27.11989 -0.0297,-0.30597 8.75953,-2.77573 19.53245,-5.48838 10.77289,-2.71264 28.65996,-9.52967 39.74907,-15.14893 l 20.16195,-10.21684 6.48318,17.82387 c 14.34597,39.44045 17.82894,64.98671 17.45059,127.99336 -0.33813,56.31673 -1.6939,67.90487 -11.89779,101.69491 -38.28361,126.77547 -141.40966,225.5756 -261.02564,250.07615 -37.63641,7.70894 -93.93966,10.52152 -127.11864,6.35012 l 0,0 z"
     id="path4406"
     inkscape:connector-curvature="0" />
  <path
     style="fill:#808000;fill-opacity:0;stroke:none"
     d="M 315.77119,994.98559 C 234.4452,984.76097 173.44942,956.01339 116.43583,901.03805 69.094331,855.38898 30.34315,789.92729 14.455989,728.76521 2.2126657,681.63108 -0.36160169,616.26689 8.1151517,567.76259 34.663356,415.8528 151.27843,295.3527 296.15867,270.12289 c 50.73236,-8.83465 169.5787,0.46476 183.46997,14.35604 1.4353,1.43528 -1.50631,12.51358 -6.53686,24.61845 -5.03055,12.10486 -10.31407,29.31079 -11.74119,38.23539 -2.93716,18.36792 -4.11038,18.69721 -33.29127,9.34412 -14.10462,-4.52083 -36.76645,-6.80264 -67.79661,-6.82641 -74.17165,-0.0568 -125.04,19.91467 -178.78962,70.1948 -71.1167,66.52618 -103.213442,155.31866 -90.548162,250.49253 14.629972,109.93761 86.092202,200.92935 181.950932,231.67524 43.08895,13.82042 111.91519,15.70216 157.03113,4.29326 83.4061,-21.09161 149.24725,-79.82262 182.22191,-162.54385 23.59733,-59.19706 27.03894,-136.40816 8.68928,-194.94124 -4.58013,-14.60997 -8.35208,-26.81392 -8.38216,-27.11989 -0.0297,-0.30597 8.75953,-2.77573 19.53245,-5.48838 10.77289,-2.71264 28.65996,-9.52967 39.74907,-15.14893 l 20.16195,-10.21684 6.48318,17.82387 c 14.34597,39.44045 17.82894,64.98671 17.45059,127.99336 -0.33813,56.31673 -1.6939,67.90487 -11.89779,101.69491 -38.28361,126.77547 -141.40966,225.5756 -261.02564,250.07615 -37.63641,7.70894 -93.93966,10.52152 -127.11864,6.35012 l 0,0 z"
     id="path4408"
     inkscape:connector-curvature="0" />
  <path
     style="fill:#808000;fill-opacity:0;stroke:none"
     d="M 315.77119,994.98559 C 234.4452,984.76097 173.44942,956.01339 116.43583,901.03805 69.094331,855.38898 30.34315,789.92729 14.455989,728.76521 2.2126657,681.63108 -0.36160169,616.26689 8.1151517,567.76259 34.663356,415.8528 151.27843,295.3527 296.15867,270.12289 c 50.73236,-8.83465 169.5787,0.46476 183.46997,14.35604 1.4353,1.43528 -1.50631,12.51358 -6.53686,24.61845 -5.03055,12.10486 -10.31407,29.31079 -11.74119,38.23539 -2.93716,18.36792 -4.11038,18.69721 -33.29127,9.34412 -14.10462,-4.52083 -36.76645,-6.80264 -67.79661,-6.82641 -74.17165,-0.0568 -125.04,19.91467 -178.78962,70.1948 -71.1167,66.52618 -103.213442,155.31866 -90.548162,250.49253 14.629972,109.93761 86.092202,200.92935 181.950932,231.67524 43.08895,13.82042 111.91519,15.70216 157.03113,4.29326 83.4061,-21.09161 149.24725,-79.82262 182.22191,-162.54385 23.59733,-59.19706 27.03894,-136.40816 8.68928,-194.94124 -4.58013,-14.60997 -8.35208,-26.81392 -8.38216,-27.11989 -0.0297,-0.30597 8.75953,-2.77573 19.53245,-5.48838 10.77289,-2.71264 28.65996,-9.52967 39.74907,-15.14893 l 20.16195,-10.21684 6.48318,17.82387 c 14.34597,39.44045 17.82894,64.98671 17.45059,127.99336 -0.33813,56.31673 -1.6939,67.90487 -11.89779,101.69491 -38.28361,126.77547 -141.40966,225.5756 -261.02564,250.07615 -37.63641,7.70894 -93.93966,10.52152 -127.11864,6.35012 l 0,0 z"
     id="path4410"
     inkscape:connector-curvature="0" />
  <path
     style="fill:#808000;fill-opacity:0;stroke:none"
     d="M 315.77119,994.98559 C 234.4452,984.76097 173.44942,956.01339 116.43583,901.03805 69.094331,855.38898 30.34315,789.92729 14.455989,728.76521 2.2126657,681.63108 -0.36160169,616.26689 8.1151517,567.76259 34.663356,415.8528 151.27843,295.3527 296.15867,270.12289 c 50.73236,-8.83465 169.5787,0.46476 183.46997,14.35604 1.4353,1.43528 -1.50631,12.51358 -6.53686,24.61845 -5.03055,12.10486 -10.31407,29.31079 -11.74119,38.23539 -2.93716,18.36792 -4.11038,18.69721 -33.29127,9.34412 -14.10462,-4.52083 -36.76645,-6.80264 -67.79661,-6.82641 -74.17165,-0.0568 -125.04,19.91467 -178.78962,70.1948 -71.1167,66.52618 -103.213442,155.31866 -90.548162,250.49253 14.629972,109.93761 86.092202,200.92935 181.950932,231.67524 43.08895,13.82042 111.91519,15.70216 157.03113,4.29326 83.4061,-21.09161 149.24725,-79.82262 182.22191,-162.54385 23.59733,-59.19706 27.03894,-136.40816 8.68928,-194.94124 -4.58013,-14.60997 -8.35208,-26.81392 -8.38216,-27.11989 -0.0297,-0.30597 8.75953,-2.77573 19.53245,-5.48838 10.77289,-2.71264 28.65996,-9.52967 39.74907,-15.14893 l 20.16195,-10.21684 6.48318,17.82387 c 14.34597,39.44045 17.82894,64.98671 17.45059,127.99336 -0.33813,56.31673 -1.6939,67.90487 -11.89779,101.69491 -38.28361,126.77547 -141.40966,225.5756 -261.02564,250.07615 -37.63641,7.70894 -93.93966,10.52152 -127.11864,6.35012 l 0,0 z"
     id="path4412"
     inkscape:connector-curvature="0" />
  <path
     style="fill:#808000;fill-opacity:0;stroke:none"
     d="M 315.77119,994.98559 C 234.4452,984.76097 173.44942,956.01339 116.43583,901.03805 69.094331,855.38898 30.34315,789.92729 14.455989,728.76521 2.2126657,681.63108 -0.36160169,616.26689 8.1151517,567.76259 34.663356,415.8528 151.27843,295.3527 296.15867,270.12289 c 50.73236,-8.83465 169.5787,0.46476 183.46997,14.35604 1.4353,1.43528 -1.50631,12.51358 -6.53686,24.61845 -5.03055,12.10486 -10.31407,29.31079 -11.74119,38.23539 -2.93716,18.36792 -4.11038,18.69721 -33.29127,9.34412 -14.10462,-4.52083 -36.76645,-6.80264 -67.79661,-6.82641 -74.17165,-0.0568 -125.04,19.91467 -178.78962,70.1948 -71.1167,66.52618 -103.213442,155.31866 -90.548162,250.49253 14.629972,109.93761 86.092202,200.92935 181.950932,231.67524 43.08895,13.82042 111.91519,15.70216 157.03113,4.29326 83.4061,-21.09161 149.24725,-79.82262 182.22191,-162.54385 23.59733,-59.19706 27.03894,-136.40816 8.68928,-194.94124 -4.58013,-14.60997 -8.35208,-26.81392 -8.38216,-27.11989 -0.0297,-0.30597 8.75953,-2.77573 19.53245,-5.48838 10.77289,-2.71264 28.65996,-9.52967 39.74907,-15.14893 l 20.16195,-10.21684 6.48318,17.82387 c 14.34597,39.44045 17.82894,64.98671 17.45059,127.99336 -0.33813,56.31673 -1.6939,67.90487 -11.89779,101.69491 -38.28361,126.77547 -141.40966,225.5756 -261.02564,250.07615 -37.63641,7.70894 -93.93966,10.52152 -127.11864,6.35012 l 0,0 z"
     id="path4414"
     inkscape:connector-curvature="0" />
  <path
     style="fill:#808000;fill-opacity:0;stroke:none"
     d="M 315.77119,994.98559 C 234.4452,984.76097 173.44942,956.01339 116.43583,901.03805 69.094331,855.38898 30.34315,789.92729 14.455989,728.76521 2.2126657,681.63108 -0.36160169,616.26689 8.1151517,567.76259 34.663356,415.8528 151.27843,295.3527 296.15867,270.12289 c 50.73236,-8.83465 169.5787,0.46476 183.46997,14.35604 1.4353,1.43528 -1.50631,12.51358 -6.53686,24.61845 -5.03055,12.10486 -10.31407,29.31079 -11.74119,38.23539 -2.93716,18.36792 -4.11038,18.69721 -33.29127,9.34412 -14.10462,-4.52083 -36.76645,-6.80264 -67.79661,-6.82641 -74.17165,-0.0568 -125.04,19.91467 -178.78962,70.1948 -71.1167,66.52618 -103.213442,155.31866 -90.548162,250.49253 14.629972,109.93761 86.092202,200.92935 181.950932,231.67524 43.08895,13.82042 111.91519,15.70216 157.03113,4.29326 83.4061,-21.09161 149.24725,-79.82262 182.22191,-162.54385 23.59733,-59.19706 27.03894,-136.40816 8.68928,-194.94124 -4.58013,-14.60997 -8.35208,-26.81392 -8.38216,-27.11989 -0.0297,-0.30597 8.75953,-2.77573 19.53245,-5.48838 10.77289,-2.71264 28.65996,-9.52967 39.74907,-15.14893 l 20.16195,-10.21684 6.48318,17.82387 c 14.34597,39.44045 17.82894,64.98671 17.45059,127.99336 -0.33813,56.31673 -1.6939,67.90487 -11.89779,101.69491 -38.28361,126.77547 -141.40966,225.5756 -261.02564,250.07615 -37.63641,7.70894 -93.93966,10.52152 -127.11864,6.35012 l 0,0 z"
     id="path4416"
     inkscape:connector-curvature="0" />
</svg>
