<?xml version="1.0" encoding="UTF-8" standalone="no"?>
<svg
   xmlns:osb="http://www.openswatchbook.org/uri/2009/osb"
   xmlns:dc="http://purl.org/dc/elements/1.1/"
   xmlns:cc="http://creativecommons.org/ns#"
   xmlns:rdf="http://www.w3.org/1999/02/22-rdf-syntax-ns#"
   xmlns:svg="http://www.w3.org/2000/svg"
   xmlns="http://www.w3.org/2000/svg"
   xmlns:xlink="http://www.w3.org/1999/xlink"
   xmlns:sodipodi="http://sodipodi.sourceforge.net/DTD/sodipodi-0.dtd"
   xmlns:inkscape="http://www.inkscape.org/namespaces/inkscape"
   version="1.0"
   width="992.000000pt"
   height="992.000000pt"
   viewBox="0 0 992.000000 992.000000"
   preserveAspectRatio="xMidYMid meet"
   id="svg2"
   inkscape:version="0.48.4 r9939"
   sodipodi:docname="logo.svg">
  <defs
     id="defs54">
    <linearGradient
       id="linearGradient3931"
       osb:paint="solid">
      <stop
         style="stop-color:#509b23;stop-opacity:1;"
         offset="0"
         id="stop3933" />
    </linearGradient>
    <linearGradient
       id="linearGradient3925"
       osb:paint="solid">
      <stop
         style="stop-color:#509b23;stop-opacity:1;"
         offset="0"
         id="stop3927" />
    </linearGradient>
    <linearGradient
       id="linearGradient3919"
       osb:paint="solid">
      <stop
         style="stop-color:#509b23;stop-opacity:1;"
         offset="0"
         id="stop3921" />
    </linearGradient>
    <linearGradient
       id="linearGradient3913"
       osb:paint="solid">
      <stop
         style="stop-color:#509b23;stop-opacity:1;"
         offset="0"
         id="stop3915" />
    </linearGradient>
    <linearGradient
       id="linearGradient3907"
       osb:paint="solid">
      <stop
         style="stop-color:#509b23;stop-opacity:1;"
         offset="0"
         id="stop3909" />
    </linearGradient>
    <linearGradient
       id="linearGradient3901"
       osb:paint="solid">
      <stop
         style="stop-color:#509b23;stop-opacity:1;"
         offset="0"
         id="stop3903" />
    </linearGradient>
    <linearGradient
       id="linearGradient3895"
       osb:paint="solid">
      <stop
         style="stop-color:#509b23;stop-opacity:1;"
         offset="0"
         id="stop3897" />
    </linearGradient>
    <linearGradient
       id="linearGradient3889"
       osb:paint="solid">
      <stop
         style="stop-color:#509b23;stop-opacity:1;"
         offset="0"
         id="stop3891" />
    </linearGradient>
    <linearGradient
       id="linearGradient3883"
       osb:paint="solid">
      <stop
         style="stop-color:#509b23;stop-opacity:1;"
         offset="0"
         id="stop3885" />
    </linearGradient>
    <linearGradient
       id="linearGradient3877"
       osb:paint="solid">
      <stop
         style="stop-color:#509b23;stop-opacity:1;"
         offset="0"
         id="stop3879" />
    </linearGradient>
    <linearGradient
       id="linearGradient3871"
       osb:paint="solid">
      <stop
         style="stop-color:#509b23;stop-opacity:1;"
         offset="0"
         id="stop3873" />
    </linearGradient>
    <linearGradient
       id="linearGradient3865"
       osb:paint="solid">
      <stop
         style="stop-color:#509b23;stop-opacity:1;"
         offset="0"
         id="stop3867" />
    </linearGradient>
    <linearGradient
       id="linearGradient3859"
       osb:paint="solid">
      <stop
         style="stop-color:#509b23;stop-opacity:1;"
         offset="0"
         id="stop3861" />
    </linearGradient>
    <linearGradient
       id="linearGradient3853"
       osb:paint="solid">
      <stop
         style="stop-color:#509b23;stop-opacity:1;"
         offset="0"
         id="stop3855" />
    </linearGradient>
    <linearGradient
       id="linearGradient3847"
       osb:paint="solid">
      <stop
         style="stop-color:#509b23;stop-opacity:1;"
         offset="0"
         id="stop3849" />
    </linearGradient>
    <linearGradient
       id="linearGradient3841"
       osb:paint="solid">
      <stop
         style="stop-color:#509b23;stop-opacity:1;"
         offset="0"
         id="stop3843" />
    </linearGradient>
    <linearGradient
       id="linearGradient3835"
       osb:paint="solid">
      <stop
         style="stop-color:#509b23;stop-opacity:1;"
         offset="0"
         id="stop3837" />
    </linearGradient>
    <linearGradient
       id="linearGradient3829"
       osb:paint="solid">
      <stop
         style="stop-color:#509b23;stop-opacity:1;"
         offset="0"
         id="stop3831" />
    </linearGradient>
    <linearGradient
       id="linearGradient3823"
       osb:paint="solid">
      <stop
         style="stop-color:#509b23;stop-opacity:1;"
         offset="0"
         id="stop3825" />
    </linearGradient>
    <linearGradient
       id="linearGradient3817"
       osb:paint="solid">
      <stop
         style="stop-color:#509b23;stop-opacity:1;"
         offset="0"
         id="stop3819" />
    </linearGradient>
    <linearGradient
       id="linearGradient3811"
       osb:paint="solid">
      <stop
         style="stop-color:#000000;stop-opacity:1;"
         offset="0"
         id="stop3813" />
    </linearGradient>
    <linearGradient
       id="linearGradient3805"
       osb:paint="solid">
      <stop
         style="stop-color:#509b23;stop-opacity:1;"
         offset="0"
         id="stop3807" />
    </linearGradient>
    <linearGradient
       id="linearGradient3799"
       osb:paint="solid">
      <stop
         style="stop-color:#509b23;stop-opacity:1;"
         offset="0"
         id="stop3801" />
    </linearGradient>
    <linearGradient
       inkscape:collect="always"
       xlink:href="#linearGradient3799"
       id="linearGradient3803"
       x1="3949.2351"
       y1="7420.5037"
       x2="6735"
       y2="7420.5037"
       gradientUnits="userSpaceOnUse" />
    <linearGradient
       inkscape:collect="always"
       xlink:href="#linearGradient3805"
       id="linearGradient3809"
       x1="2770.4537"
       y1="6161.7223"
       x2="5178.5422"
       y2="6161.7223"
       gradientUnits="userSpaceOnUse" />
    <linearGradient
       inkscape:collect="always"
       xlink:href="#linearGradient3817"
       id="linearGradient3821"
       x1="4442.5446"
       y1="5561.2004"
       x2="7908.441"
       y2="5561.2004"
       gradientUnits="userSpaceOnUse" />
    <linearGradient
       inkscape:collect="always"
       xlink:href="#linearGradient3823"
       id="linearGradient3827"
       x1="1992.631"
       y1="5670.7859"
       x2="3376.1505"
       y2="5670.7859"
       gradientUnits="userSpaceOnUse" />
    <linearGradient
       inkscape:collect="always"
       xlink:href="#linearGradient3829"
       id="linearGradient3833"
       x1="540.92086"
       y1="3651.2494"
       x2="1968.6623"
       y2="3651.2494"
       gradientUnits="userSpaceOnUse" />
    <linearGradient
       inkscape:collect="always"
       xlink:href="#linearGradient3835"
       id="linearGradient3839"
       x1="2012.4024"
       y1="3659.966"
       x2="3799.0705"
       y2="3659.966"
       gradientUnits="userSpaceOnUse" />
    <linearGradient
       inkscape:collect="always"
       xlink:href="#linearGradient3841"
       id="linearGradient3845"
       x1="3901.8531"
       y1="3624.6825"
       x2="5350"
       y2="3624.6825"
       gradientUnits="userSpaceOnUse" />
    <linearGradient
       inkscape:collect="always"
       xlink:href="#linearGradient3847"
       id="linearGradient3851"
       x1="4760.5519"
       y1="3568.5947"
       x2="7540"
       y2="3568.5947"
       gradientUnits="userSpaceOnUse" />
    <linearGradient
       inkscape:collect="always"
       xlink:href="#linearGradient3853"
       id="linearGradient3857"
       x1="6405.513"
       y1="3759.2457"
       x2="7997.4628"
       y2="3759.2457"
       gradientUnits="userSpaceOnUse" />
    <linearGradient
       inkscape:collect="always"
       xlink:href="#linearGradient3859"
       id="linearGradient3863"
       x1="7599.9138"
       y1="3658.3053"
       x2="9714.0662"
       y2="3658.3053"
       gradientUnits="userSpaceOnUse" />
    <linearGradient
       inkscape:collect="always"
       xlink:href="#linearGradient3865"
       id="linearGradient3869"
       x1="481.50046"
       y1="1460.4643"
       x2="1235.866"
       y2="1460.4643"
       gradientUnits="userSpaceOnUse" />
    <linearGradient
       inkscape:collect="always"
       xlink:href="#linearGradient3871"
       id="linearGradient3875"
       x1="1331.0227"
       y1="1275.7026"
       x2="1970"
       y2="1275.7026"
       gradientUnits="userSpaceOnUse" />
    <linearGradient
       inkscape:collect="always"
       xlink:href="#linearGradient3877"
       id="linearGradient3881"
       x1="2781.04"
       y1="1285.0662"
       x2="3416.7563"
       y2="1285.0662"
       gradientUnits="userSpaceOnUse" />
    <linearGradient
       inkscape:collect="always"
       xlink:href="#linearGradient3883"
       id="linearGradient3887"
       x1="3534.975"
       y1="1267.3952"
       x2="4132.7143"
       y2="1267.3952"
       gradientUnits="userSpaceOnUse" />
    <linearGradient
       inkscape:collect="always"
       xlink:href="#linearGradient3889"
       id="linearGradient3893"
       x1="2062.4844"
       y1="1100.5352"
       x2="2704.756"
       y2="1100.5352"
       gradientUnits="userSpaceOnUse" />
    <linearGradient
       inkscape:collect="always"
       xlink:href="#linearGradient3895"
       id="linearGradient3899"
       x1="5014.8767"
       y1="1276.4256"
       x2="5658.3359"
       y2="1276.4256"
       gradientUnits="userSpaceOnUse" />
    <linearGradient
       inkscape:collect="always"
       xlink:href="#linearGradient3901"
       id="linearGradient3905"
       x1="6128.3372"
       y1="1446.3369"
       x2="6980"
       y2="1446.3369"
       gradientUnits="userSpaceOnUse" />
    <linearGradient
       inkscape:collect="always"
       xlink:href="#linearGradient3907"
       id="linearGradient3911"
       x1="4232.6837"
       y1="1279.5921"
       x2="4924.6627"
       y2="1279.5921"
       gradientUnits="userSpaceOnUse" />
    <linearGradient
       inkscape:collect="always"
       xlink:href="#linearGradient3913"
       id="linearGradient3917"
       x1="7724.9937"
       y1="1295.1265"
       x2="8299"
       y2="1295.1265"
       gradientUnits="userSpaceOnUse" />
    <linearGradient
       inkscape:collect="always"
       xlink:href="#linearGradient3919"
       id="linearGradient3923"
       x1="8895.8735"
       y1="1275.6595"
       x2="9534.8769"
       y2="1275.6595"
       gradientUnits="userSpaceOnUse" />
    <linearGradient
       inkscape:collect="always"
       xlink:href="#linearGradient3925"
       id="linearGradient3929"
       x1="6916.0779"
       y1="1281.9029"
       x2="7610.0241"
       y2="1281.9029"
       gradientUnits="userSpaceOnUse" />
    <linearGradient
       inkscape:collect="always"
       xlink:href="#linearGradient3931"
       id="linearGradient3935"
       x1="8312.9922"
       y1="1398.3759"
       x2="8857.9151"
       y2="1398.3759"
       gradientUnits="userSpaceOnUse" />
  </defs>
  <sodipodi:namedview
     pagecolor="#ffffff"
     bordercolor="#666666"
     borderopacity="1"
     objecttolerance="10"
     gridtolerance="10"
     guidetolerance="10"
     inkscape:pageopacity="0"
     inkscape:pageshadow="2"
     inkscape:window-width="768"
     inkscape:window-height="480"
     id="namedview52"
     showgrid="false"
     inkscape:zoom="0.19032258"
     inkscape:cx="620"
     inkscape:cy="620"
     inkscape:window-x="0"
     inkscape:window-y="0"
     inkscape:window-maximized="0"
     inkscape:current-layer="g6" />
  <metadata
     id="metadata4">
Created by potrace 1.12, written by Peter Selinger 2001-2015
<rdf:RDF>
  <cc:Work
     rdf:about="">
    <dc:format>image/svg+xml</dc:format>
    <dc:type
       rdf:resource="http://purl.org/dc/dcmitype/StillImage" />
  </cc:Work>
</rdf:RDF>
</metadata>
  <g
     transform="translate(0.000000,992.000000) scale(0.100000,-0.100000)"
     fill="#000000"
     stroke="none"
     id="g6">
    <path
       d="M5230 8963 c0 -38 -7 -147 -15 -243 -14 -173 -14 -175 -42 -194 -15 -11 -53 -44 -83 -73 l-56 -52 -112 99 c-120 106 -152 129 -152 108 0 -6 25 -65 55 -129 81 -172 88 -244 34 -313 -40 -51 -47 -50 -160 16 -125 72 -259 141 -259 132 0 -4 37 -66 83 -138 46 -72 100 -161 120 -197 l37 -67 -31 -67 -30 -67 -46 7 c-26 4 -117 24 -202 45 -168 41 -231 53 -231 47 0 -3 62 -41 138 -86 186 -111 276 -177 267 -199 -3 -9 -22 -74 -42 -144 -26 -94 -40 -128 -51 -128 -9 0 -106 18 -216 39 -111 21 -226 42 -256 45 -52 6 -47 3 85 -51 77 -32 194 -85 260 -118 l119 -60 -3 -82 c-1 -46 1 -114 5 -152 l6 -69 57 -7 c97 -11 243 -54 331 -97 70 -34 101 -58 175 -133 97 -98 182 -225 215 -318 38 -109 24 -235 -45 -399 -20 -46 -33 -89 -30 -97 7 -19 257 -9 340 14 162 44 357 177 495 337 l64 75 123 -58 c83 -39 120 -53 114 -41 -5 9 -39 51 -75 92 -90 103 -94 113 -71 153 10 17 38 77 61 132 26 62 49 101 59 103 9 2 63 -8 121 -23 57 -15 109 -25 114 -23 6 2 -22 27 -63 56 -40 29 -90 70 -111 91 l-37 38 39 159 c35 139 42 159 58 156 11 -2 71 -18 134 -37 63 -18 133 -36 155 -39 37 -7 33 -3 -50 49 -49 31 -123 81 -162 111 l-73 54 0 153 c0 83 -4 179 -10 211 -5 33 -8 61 -6 63 2 2 64 25 137 52 74 26 154 57 179 68 l45 19 -190 3 c-104 1 -192 5 -196 9 -3 4 -12 34 -19 67 -7 33 -35 120 -62 193 -41 111 -48 136 -37 148 7 9 69 62 138 118 70 57 135 113 146 126 l20 23 -23 -8 c-51 -15 -338 -98 -358 -102 -16 -4 -28 4 -45 29 -13 18 -61 74 -106 125 -48 52 -83 101 -83 112 0 12 14 83 30 158 17 75 30 146 28 156 -2 14 -19 -4 -60 -64 -105 -155 -161 -220 -183 -214 -11 3 -53 5 -93 5 -49 0 -74 4 -77 13 -2 6 -9 52 -15 100 -7 49 -16 85 -20 80 -4 -4 -15 -43 -24 -85 -14 -62 -23 -82 -47 -103 -54 -45 -53 -46 -124 145 -60 159 -83 210 -95 210 -6 0 -10 -28 -10 -67z"
       id="path8"
       style="fill:url(#linearGradient3803);fill-opacity:1" />
    <path
       d="M3945 7115 c3 -55 7 -157 10 -226 l5 -126 -77 -23 c-43 -12 -120 -38 -172 -57 l-94 -35 -195 194 c-107 106 -191 186 -187 178 5 -8 63 -100 130 -205 164 -256 153 -227 102 -268 -23 -19 -67 -51 -98 -71 l-56 -37 -132 67 c-73 36 -134 64 -136 62 -3 -2 28 -40 68 -83 40 -44 83 -93 94 -108 l22 -29 -33 -51 c-18 -29 -40 -64 -49 -78 -13 -21 -47 -36 -208 -89 -211 -69 -214 -73 -64 -84 50 -4 117 -12 149 -19 l59 -12 14 -54 c27 -108 79 -188 204 -313 l116 -117 -52 -128 c-28 -70 -57 -139 -64 -151 -26 -48 -1 -30 105 76 60 60 121 117 136 126 24 16 29 16 57 1 17 -8 71 -29 119 -46 48 -17 93 -36 99 -42 7 -7 22 -63 34 -125 12 -63 25 -110 29 -105 4 4 21 53 38 108 l31 100 130 0 130 0 68 -112 c37 -62 68 -111 69 -110 2 2 -20 167 -28 215 -2 11 30 28 117 62 536 207 756 439 743 785 -3 87 -8 109 -36 169 -151 322 -448 477 -888 464 -74 -2 -134 -3 -134 -3 0 5 -159 365 -168 380 -9 16 -11 -1 -7 -80z"
       id="path10"
       style="fill:url(#linearGradient3809);fill-opacity:1" />
    <path
       d="M6049 5889 c-31 -4 -78 -16 -106 -27 -39 -15 -67 -18 -135 -14 -81 4 -89 3 -187 -37 -139 -56 -203 -65 -396 -58 l-160 5 -65 -70 c-82 -89 -142 -129 -355 -241 -93 -49 -179 -96 -190 -103 -18 -13 -18 -14 10 -14 17 0 67 7 112 16 79 16 82 16 107 -3 43 -34 107 -46 219 -40 56 2 120 11 142 19 34 13 45 13 73 1 23 -10 67 -13 145 -11 l112 3 85 -45 85 -45 130 0 c125 0 133 2 209 34 86 36 78 36 259 10 68 -9 114 -9 202 0 157 16 186 28 265 111 l65 69 135 -1 c155 -2 217 11 344 70 77 35 87 37 191 39 135 2 164 8 371 83 91 33 172 60 181 60 8 0 13 6 11 13 -7 20 -75 34 -228 47 -80 6 -215 18 -300 26 -85 8 -280 19 -432 24 -241 8 -296 13 -430 40 -245 47 -352 57 -469 39z"
       id="path12"
       style="fill-opacity:1;fill:url(#linearGradient3821)" />
    <path
       d="M2970 5866 c-25 -7 -64 -23 -87 -34 l-42 -22 -48 26 c-71 38 -146 31 -283 -26 l-105 -45 -165 0 c-136 0 -170 -3 -196 -17 -39 -22 -60 -46 -48 -58 14 -14 126 -28 284 -35 186 -8 264 -25 354 -74 134 -73 268 -104 511 -117 135 -6 201 2 225 31 17 20 -1 40 -57 67 -53 25 -103 83 -182 216 -69 113 -69 113 -161 88z"
       id="path14"
       style="fill:url(#linearGradient3827);fill-opacity:1" />
    <path
       d="M9190 4946 c-181 -39 -438 -163 -750 -364 -112 -72 -216 -179 -259 -267 -29 -58 -35 -82 -39 -160 -11 -212 55 -387 167 -449 66 -35 192 -45 344 -26 92 11 107 11 135 -4 41 -21 66 -68 58 -110 -16 -83 -133 -237 -261 -345 -159 -134 -250 -184 -565 -311 -388 -156 -407 -173 -417 -374 -6 -101 -5 -105 19 -129 69 -69 251 -62 494 19 192 63 399 163 531 256 83 59 566 481 678 594 95 95 246 302 302 413 53 105 67 220 42 345 -11 52 -17 61 -68 101 -77 61 -171 107 -231 113 -38 3 -71 -2 -133 -23 -107 -36 -279 -113 -369 -165 -84 -48 -120 -50 -152 -7 -17 23 -21 43 -21 101 0 70 1 74 44 131 65 86 136 151 221 201 102 60 155 58 175 -9 13 -40 67 -87 119 -102 60 -18 210 -20 257 -3 41 14 128 69 150 94 44 51 54 86 53 194 -1 167 -41 229 -176 272 -82 26 -259 33 -348 14z m477 -239 c9 -26 10 -50 4 -75 -14 -56 -57 -153 -72 -163 -17 -11 -140 -11 -156 -1 -16 10 -17 20 -15 165 l2 118 112 -3 113 -3 12 -38z m-194 -581 c74 -28 130 -63 122 -76 -3 -4 -29 -11 -58 -15 -28 -3 -84 -13 -124 -22 -59 -13 -75 -14 -87 -3 -9 7 -16 18 -16 26 0 7 -19 32 -42 54 -42 40 -43 42 -23 57 29 22 143 11 228 -21z m131 -217 c-2 -86 -6 -117 -26 -165 -54 -135 -188 -324 -229 -324 -24 0 -24 2 6 105 37 129 41 195 16 292 -12 45 -21 97 -21 116 l0 34 83 23 c45 12 87 24 92 26 6 1 26 2 45 1 l35 -2 -1 -106z m-1655 -1226 c-1 -121 -12 -200 -31 -219 -9 -9 -41 -18 -77 -21 l-61 -6 -50 50 c-42 43 -50 56 -50 88 0 50 38 114 88 149 48 33 83 44 140 45 l42 1 -1 -87z"
       id="path16"
       style="fill:url(#linearGradient3863);fill-opacity:1" />
    <path
       d="M2789 4866 c-61 -21 -104 -53 -175 -129 -150 -158 -318 -449 -440 -764 -100 -257 -150 -576 -160 -1023 -8 -306 14 -470 67 -503 52 -33 175 57 229 167 25 50 40 109 70 282 44 245 42 240 225 709 73 187 147 385 165 440 47 145 60 175 76 175 18 0 124 -221 158 -328 31 -97 32 -133 9 -155 -10 -8 -80 -45 -156 -82 -155 -75 -201 -113 -210 -171 -9 -51 -8 -326 1 -383 4 -24 12 -46 18 -48 6 -2 66 43 135 100 172 142 256 206 305 230 44 21 74 18 74 -8 0 -8 29 -84 64 -168 148 -354 180 -412 240 -441 69 -33 241 -11 294 37 32 29 29 71 -19 292 -78 361 -146 588 -341 1140 -121 342 -161 425 -250 514 -109 108 -267 157 -379 117z m95 -112 l47 -7 -33 -34 c-18 -19 -52 -46 -76 -60 -36 -22 -52 -25 -95 -20 -65 6 -107 25 -107 48 0 9 17 31 38 48 33 27 44 30 108 31 39 0 92 -3 118 -6z m-185 -190 c2 -2 -10 -17 -27 -34 -17 -17 -83 -95 -146 -173 -161 -198 -174 -213 -181 -205 -12 12 16 109 55 195 40 86 86 160 129 206 25 28 28 28 96 22 39 -4 72 -9 74 -11z m162 -1106 c-6 -103 -10 -131 -25 -147 -21 -23 -102 -71 -120 -71 -8 0 -9 37 -6 131 5 124 7 132 30 150 59 46 114 79 121 72 4 -5 4 -65 0 -135z"
       id="path18"
       style="fill:url(#linearGradient3839);fill-opacity:1" />
    <path
       d="M7470 4871 c-8 -5 -40 -11 -71 -15 -134 -15 -501 -142 -969 -336 -135 -56 -346 -143 -470 -195 -124 -51 -306 -123 -405 -159 -99 -37 -254 -94 -345 -128 -199 -73 -315 -128 -368 -174 -55 -47 -73 -102 -79 -249 -5 -114 -4 -122 19 -155 13 -19 43 -48 66 -64 37 -26 54 -31 118 -34 62 -4 88 0 152 23 157 56 318 154 421 256 34 33 67 59 74 56 29 -10 0 -310 -49 -501 -35 -139 -64 -221 -154 -430 -148 -343 -151 -410 -20 -478 139 -73 291 -9 420 177 136 198 318 646 409 1010 46 184 51 225 61 435 l9 195 53 48 c79 71 247 180 373 242 60 30 220 96 355 148 399 153 470 193 470 263 0 21 -8 42 -20 54 -22 22 -28 23 -50 11z m-2310 -948 c0 -5 -16 -53 -36 -108 -25 -70 -38 -126 -42 -185 -8 -101 -12 -104 -139 -115 l-83 -7 0 84 c0 149 39 233 130 283 72 38 170 66 170 48z m511 -1370 c49 -32 50 -59 7 -109 -72 -82 -163 -114 -227 -81 -62 31 -50 75 49 180 l61 66 36 -15 c19 -9 53 -27 74 -41z"
       id="path20"
       style="fill:url(#linearGradient3851);fill-opacity:1" />
    <path
       d="M7668 4755 c-30 -17 -28 -9 -78 -285 -71 -384 -127 -595 -220 -830 -125 -313 -241 -502 -326 -530 -74 -25 -124 14 -124 96 0 183 42 362 118 508 41 81 131 174 261 276 111 86 146 135 146 204 0 69 -36 125 -107 165 -72 42 -110 46 -189 21 -148 -45 -340 -208 -460 -389 -212 -320 -315 -639 -275 -858 19 -108 65 -199 130 -262 68 -63 114 -86 215 -105 157 -30 246 -19 386 49 113 55 212 138 327 275 245 289 435 657 504 975 21 94 29 426 13 489 -14 53 -107 144 -189 185 -70 34 -92 37 -132 16z m-441 -459 c51 -46 111 -143 97 -155 -47 -38 -103 -80 -121 -90 -20 -10 -26 -7 -64 46 -23 32 -62 79 -87 106 -41 41 -44 49 -32 62 22 21 122 75 141 75 9 0 39 -20 66 -44z m-594 -670 c59 -24 69 -41 61 -105 -13 -111 -25 -118 -124 -77 -43 18 -54 27 -52 42 6 41 58 154 70 154 7 0 27 -6 45 -14z m5 -255 c21 -11 23 -17 17 -59 -11 -80 -23 -300 -18 -327 7 -33 -3 -56 -20 -49 -20 7 -103 187 -123 265 -15 59 -14 184 1 209 5 9 105 -19 143 -39z"
       id="path22"
       style="fill:url(#linearGradient3857);fill-opacity:1" />
    <path
       d="M1560 4625 c-191 -59 -581 -427 -793 -750 -229 -349 -286 -673 -162 -933 107 -225 374 -329 658 -256 142 36 258 120 389 282 149 185 304 469 315 578 16 167 -81 139 -400 -114 -67 -54 -136 -108 -154 -120 -109 -77 -172 66 -128 293 30 158 155 480 214 552 17 20 23 21 82 13 129 -19 238 21 281 103 19 34 23 58 23 127 0 92 -18 142 -67 187 -55 52 -162 67 -258 38z m204 -164 c35 -37 62 -127 44 -148 -17 -20 -103 -63 -127 -63 -24 0 -29 17 -34 110 -2 36 -7 72 -11 81 -6 13 2 20 36 32 59 21 61 21 92 -12z m-906 -925 c2 -10 -6 -39 -17 -66 -12 -27 -21 -64 -21 -83 0 -19 -6 -39 -12 -44 -12 -9 -154 -43 -180 -43 -20 0 5 178 30 217 7 12 164 44 187 39 6 -2 12 -11 13 -20z m-56 -360 c-5 -99 20 -210 70 -318 36 -79 31 -93 -24 -77 -55 15 -142 99 -178 172 -33 69 -60 177 -60 249 l0 47 43 4 c23 2 67 4 97 5 l55 2 -3 -84z"
       id="path24"
       style="fill:url(#linearGradient3833);fill-opacity:1" />
    <path
       d="M4893 4590 c-178 -47 -269 -99 -421 -245 -297 -284 -496 -596 -557 -870 -21 -93 -16 -295 9 -390 48 -180 155 -317 310 -395 72 -37 99 -45 154 -48 143 -8 380 46 537 123 163 79 425 343 425 428 0 29 -41 47 -106 47 -51 0 -91 -11 -245 -69 -264 -99 -335 -122 -353 -115 -20 8 -24 35 -31 214 -13 296 41 559 169 830 70 148 63 144 134 78 34 -31 81 -64 106 -73 41 -16 50 -16 123 -1 81 16 113 34 147 80 18 24 21 42 21 144 0 102 -3 122 -23 159 -56 105 -225 149 -399 103z m317 -132 c26 -42 38 -87 46 -164 l6 -61 -48 -11 c-27 -6 -66 -14 -86 -17 l-38 -6 0 49 c0 72 -17 153 -39 182 l-18 25 56 17 c84 25 98 23 121 -14z m-1044 -950 c-8 -80 -23 -102 -83 -118 -26 -6 -56 -14 -66 -17 -16 -4 -18 3 -15 84 l3 88 55 12 c30 6 68 12 84 12 l29 1 -7 -62z m-36 -168 c0 -37 44 -338 60 -412 24 -112 15 -132 -33 -76 -140 162 -144 168 -157 306 -16 160 -19 148 53 171 73 23 77 24 77 11z"
       id="path26"
       style="fill:url(#linearGradient3845);fill-opacity:1" />
    <path
       d="M721 2069 c-76 -13 -139 -43 -153 -74 -9 -21 -9 -34 3 -67 13 -36 13 -54 -3 -167 -9 -69 -20 -168 -24 -221 -7 -87 -9 -97 -36 -121 -33 -32 -35 -52 -7 -104 18 -36 20 -60 22 -225 2 -200 10 -235 54 -246 13 -4 80 -1 148 5 162 14 321 14 401 -1 74 -13 88 -7 105 52 16 54 -8 103 -64 126 -35 14 -72 17 -231 16 -126 -1 -194 2 -203 9 -9 8 -13 41 -13 120 l0 108 56 7 c31 3 122 4 201 2 l144 -5 19 25 c26 32 25 82 -1 115 -31 40 -86 51 -253 50 l-149 -1 7 102 c9 150 27 273 41 293 10 14 35 18 126 23 63 4 150 3 194 -2 75 -8 81 -8 98 13 55 67 23 145 -68 168 -51 13 -336 13 -414 0z"
       id="path28"
       style="fill:url(#linearGradient3869);fill-opacity:1" />
    <path
       d="M6155 2025 c-48 -47 -34 -167 65 -570 54 -221 129 -465 166 -537 13 -26 34 -54 46 -62 29 -20 90 -20 128 -1 27 14 30 20 30 68 0 135 209 704 345 939 25 43 45 87 45 99 0 11 -15 36 -34 55 -27 27 -42 34 -73 34 -21 0 -49 -7 -62 -17 -43 -29 -235 -453 -306 -673 -15 -47 -31 -89 -35 -93 -8 -10 -18 24 -64 240 -53 243 -78 407 -71 457 6 39 4 45 -20 65 -41 32 -127 30 -160 -4z"
       id="path30"
       style="fill:url(#linearGradient3905);fill-opacity:1" />
    <path
       d="M8518 1945 l-26 -15 5 -121 6 -121 -84 3 c-80 3 -84 3 -97 -21 -7 -14 -11 -42 -8 -65 6 -53 39 -80 106 -88 29 -4 54 -8 56 -10 2 -2 -1 -92 -6 -200 -15 -279 3 -410 61 -451 55 -38 160 -4 145 48 -25 85 -35 365 -20 549 l7 76 86 3 86 3 14 62 c11 50 12 68 2 89 -12 27 -13 27 -95 22 l-82 -6 4 107 c4 98 3 107 -17 125 -28 25 -107 31 -143 11z"
       id="path32"
       style="fill:url(#linearGradient3935);fill-opacity:1" />
    <path
       d="M7790 1750 c-67 -16 -65 -4 -65 -436 0 -437 2 -451 65 -473 43 -15 105 2 125 33 14 21 14 30 0 87 -26 112 -15 270 25 363 22 53 91 131 134 153 21 11 53 16 97 15 60 -2 67 0 93 27 17 18 30 44 33 69 5 36 2 45 -25 72 -26 25 -38 30 -79 30 -72 0 -144 -25 -218 -75 l-65 -45 0 74 c0 76 -13 106 -45 106 -7 0 -19 2 -27 4 -7 2 -29 0 -48 -4z"
       id="path34"
       style="fill:url(#linearGradient3917);fill-opacity:1" />
    <path
       d="M2149 1727 c-32 -22 -34 -26 -31 -73 1 -27 -7 -116 -18 -199 -49 -360 -50 -866 -3 -947 10 -18 30 -39 44 -45 36 -19 93 -16 120 6 23 18 23 21 10 62 -8 25 -16 106 -18 187 l-4 143 30 -15 c44 -23 145 -21 198 5 86 42 163 160 204 314 31 116 32 326 1 409 -29 79 -66 124 -120 148 -61 27 -129 19 -196 -23 -31 -19 -52 -27 -54 -20 -2 7 -15 25 -29 41 -32 38 -84 41 -134 7z m331 -189 c42 -70 35 -231 -17 -383 -57 -163 -172 -221 -204 -102 -20 74 5 268 51 390 44 117 128 164 170 95z"
       id="path36"
       style="fill:url(#linearGradient3893);fill-opacity:1" />
    <path
       d="M3095 1718 c-102 -36 -215 -157 -215 -229 0 -29 6 -42 26 -58 15 -12 33 -21 40 -21 29 0 63 24 83 61 29 51 89 99 123 99 39 0 58 -33 58 -100 l0 -55 -68 -16 c-156 -38 -283 -129 -336 -243 -24 -50 -27 -69 -24 -121 5 -79 33 -119 105 -152 76 -35 184 -31 263 10 34 18 56 24 58 17 2 -6 15 -24 29 -40 19 -23 33 -30 61 -30 75 0 142 68 111 113 -11 18 -15 83 -19 317 -5 278 -6 297 -27 335 -55 103 -165 149 -268 113z m115 -527 c0 -50 -4 -65 -27 -92 -33 -39 -115 -79 -164 -79 -127 0 -54 155 98 206 37 13 74 24 81 24 8 0 12 -18 12 -59z"
       id="path38"
       style="fill:url(#linearGradient3881);fill-opacity:1" />
    <path
       d="M1730 1704 c-136 -36 -289 -134 -350 -224 -28 -42 -35 -63 -38 -114 -7 -112 21 -140 262 -257 79 -38 147 -76 150 -84 11 -29 -34 -45 -124 -45 -92 0 -148 18 -184 59 -31 35 -78 26 -101 -20 -20 -38 -19 -62 6 -93 70 -89 294 -121 445 -65 136 51 184 181 103 274 -36 41 -99 77 -231 135 -150 66 -168 100 -90 176 65 63 189 122 227 108 19 -8 19 -51 0 -84 -22 -38 -18 -68 11 -95 36 -33 70 -32 103 4 35 37 51 92 51 172 0 144 -80 195 -240 153z"
       id="path40"
       style="fill:url(#linearGradient3875);fill-opacity:1" />
    <path
       d="M4555 1696 c-73 -34 -127 -86 -189 -179 -162 -244 -178 -491 -39 -606 97 -80 249 -94 373 -35 170 81 274 250 201 328 -27 29 -72 42 -98 28 -10 -6 -24 -30 -30 -54 -24 -90 -146 -178 -247 -178 -41 0 -53 5 -82 34 -19 19 -34 41 -34 49 0 9 28 24 73 41 141 51 263 154 316 266 21 45 26 69 26 136 0 69 -3 85 -25 117 -53 77 -149 98 -245 53z m120 -145 c10 -32 -20 -88 -82 -153 -61 -64 -140 -124 -150 -114 -4 3 13 45 37 92 68 138 176 235 195 175z"
       id="path42"
       style="fill:url(#linearGradient3911);fill-opacity:1" />
    <path
       d="M5414 1705 c-217 -59 -393 -216 -394 -353 0 -93 47 -137 256 -237 85 -41 157 -82 161 -91 12 -31 -25 -44 -121 -44 -98 0 -154 18 -190 59 -25 28 -57 27 -86 -4 -36 -38 -33 -90 7 -125 119 -107 426 -100 530 12 45 48 56 123 27 184 -22 46 -75 81 -238 158 -141 67 -163 87 -147 129 13 34 94 102 155 131 72 33 99 38 122 22 18 -14 18 -15 -4 -69 -18 -44 -21 -60 -13 -76 15 -27 51 -51 77 -51 53 0 112 129 101 221 -16 129 -96 174 -243 134z"
       id="path44"
       style="fill:url(#linearGradient3899);fill-opacity:1" />
    <path
       d="M7242 1701 c-91 -43 -206 -179 -266 -316 -63 -141 -78 -291 -37 -377 29 -61 83 -115 140 -142 37 -17 65 -21 146 -21 88 0 107 3 158 27 70 33 178 134 207 193 37 76 22 139 -39 165 -51 21 -79 7 -92 -45 -24 -95 -144 -185 -246 -185 -55 0 -86 17 -109 62 -16 32 -9 47 24 48 21 0 138 56 184 88 71 49 137 123 170 191 57 115 39 244 -44 302 -45 33 -137 37 -196 10z m116 -158 c5 -33 -35 -101 -92 -158 -54 -54 -133 -111 -141 -103 -13 13 91 195 137 241 53 53 90 61 96 20z"
       id="path46"
       style="fill:url(#linearGradient3929);fill-opacity:1" />
    <path
       d="M9295 1705 c-218 -59 -394 -217 -395 -353 0 -93 47 -136 256 -237 85 -41 157 -82 161 -91 12 -31 -24 -44 -119 -44 -96 0 -134 11 -184 53 -40 34 -64 34 -94 2 -32 -34 -32 -86 -1 -119 57 -61 220 -98 346 -78 154 24 235 92 235 198 0 91 -42 129 -263 233 -138 65 -156 83 -131 132 19 38 89 95 149 123 71 33 99 38 121 22 18 -14 18 -15 -4 -69 -26 -61 -22 -82 20 -111 46 -33 84 -13 124 64 25 48 25 173 1 218 -37 68 -112 87 -222 57z"
       id="path48"
       style="fill:url(#linearGradient3923);fill-opacity:1" />
    <path
       d="M3764 1681 c-66 -44 -164 -227 -205 -381 -31 -117 -32 -257 -3 -320 95 -203 377 -189 525 27 66 96 69 177 8 209 -55 28 -80 16 -112 -51 -46 -97 -122 -165 -185 -165 -106 0 -109 204 -6 416 20 40 45 81 56 91 19 17 20 17 34 -2 8 -10 14 -27 14 -37 0 -28 37 -58 71 -58 21 0 40 10 61 30 27 27 30 36 25 72 -7 51 -49 113 -104 152 -56 39 -134 46 -179 17z"
       id="path50"
       style="fill:url(#linearGradient3887);fill-opacity:1" />
  </g>
</svg>
