<?xml version="1.0" encoding="UTF-8" standalone="no"?>
<svg
   xmlns:osb="http://www.openswatchbook.org/uri/2009/osb"
   xmlns:dc="http://purl.org/dc/elements/1.1/"
   xmlns:cc="http://creativecommons.org/ns#"
   xmlns:rdf="http://www.w3.org/1999/02/22-rdf-syntax-ns#"
   xmlns:svg="http://www.w3.org/2000/svg"
   xmlns="http://www.w3.org/2000/svg"
   xmlns:sodipodi="http://sodipodi.sourceforge.net/DTD/sodipodi-0.dtd"
   xmlns:inkscape="http://www.inkscape.org/namespaces/inkscape"
   version="1.0"
   width="1600pt"
   height="500pt"
   viewBox="0 0 1600 500"
   preserveAspectRatio="xMidYMid meet"
   id="svg2"
   inkscape:version="0.91 r13725"
   sodipodi:docname="logo.svg">
  <defs
     id="defs54">
    <linearGradient
       id="linearGradient3931"
       osb:paint="solid">
      <stop
         style="stop-color:#509b23;stop-opacity:1;"
         offset="0"
         id="stop3933" />
    </linearGradient>
    <linearGradient
       id="linearGradient3925"
       osb:paint="solid">
      <stop
         style="stop-color:#509b23;stop-opacity:1;"
         offset="0"
         id="stop3927" />
    </linearGradient>
    <linearGradient
       id="linearGradient3919"
       osb:paint="solid">
      <stop
         style="stop-color:#509b23;stop-opacity:1;"
         offset="0"
         id="stop3921" />
    </linearGradient>
    <linearGradient
       id="linearGradient3913"
       osb:paint="solid">
      <stop
         style="stop-color:#509b23;stop-opacity:1;"
         offset="0"
         id="stop3915" />
    </linearGradient>
    <linearGradient
       id="linearGradient3907"
       osb:paint="solid">
      <stop
         style="stop-color:#509b23;stop-opacity:1;"
         offset="0"
         id="stop3909" />
    </linearGradient>
    <linearGradient
       id="linearGradient3901"
       osb:paint="solid">
      <stop
         style="stop-color:#509b23;stop-opacity:1;"
         offset="0"
         id="stop3903" />
    </linearGradient>
    <linearGradient
       id="linearGradient3895"
       osb:paint="solid">
      <stop
         style="stop-color:#509b23;stop-opacity:1;"
         offset="0"
         id="stop3897" />
    </linearGradient>
    <linearGradient
       id="linearGradient3889"
       osb:paint="solid">
      <stop
         style="stop-color:#509b23;stop-opacity:1;"
         offset="0"
         id="stop3891" />
    </linearGradient>
    <linearGradient
       id="linearGradient3883"
       osb:paint="solid">
      <stop
         style="stop-color:#509b23;stop-opacity:1;"
         offset="0"
         id="stop3885" />
    </linearGradient>
    <linearGradient
       id="linearGradient3877"
       osb:paint="solid">
      <stop
         style="stop-color:#509b23;stop-opacity:1;"
         offset="0"
         id="stop3879" />
    </linearGradient>
    <linearGradient
       id="linearGradient3871"
       osb:paint="solid">
      <stop
         style="stop-color:#509b23;stop-opacity:1;"
         offset="0"
         id="stop3873" />
    </linearGradient>
    <linearGradient
       id="linearGradient3865"
       osb:paint="solid">
      <stop
         style="stop-color:#509b23;stop-opacity:1;"
         offset="0"
         id="stop3867" />
    </linearGradient>
    <linearGradient
       id="linearGradient3859"
       osb:paint="solid">
      <stop
         style="stop-color:#509b23;stop-opacity:1;"
         offset="0"
         id="stop3861" />
    </linearGradient>
    <linearGradient
       id="linearGradient3853"
       osb:paint="solid">
      <stop
         style="stop-color:#509b23;stop-opacity:1;"
         offset="0"
         id="stop3855" />
    </linearGradient>
    <linearGradient
       id="linearGradient3847"
       osb:paint="solid">
      <stop
         style="stop-color:#509b23;stop-opacity:1;"
         offset="0"
         id="stop3849" />
    </linearGradient>
    <linearGradient
       id="linearGradient3841"
       osb:paint="solid">
      <stop
         style="stop-color:#509b23;stop-opacity:1;"
         offset="0"
         id="stop3843" />
    </linearGradient>
    <linearGradient
       id="linearGradient3835"
       osb:paint="solid">
      <stop
         style="stop-color:#509b23;stop-opacity:1;"
         offset="0"
         id="stop3837" />
    </linearGradient>
    <linearGradient
       id="linearGradient3829"
       osb:paint="solid">
      <stop
         style="stop-color:#509b23;stop-opacity:1;"
         offset="0"
         id="stop3831" />
    </linearGradient>
    <linearGradient
       id="linearGradient3823"
       osb:paint="solid">
      <stop
         style="stop-color:#509b23;stop-opacity:1;"
         offset="0"
         id="stop3825" />
    </linearGradient>
    <linearGradient
       id="linearGradient3817"
       osb:paint="solid">
      <stop
         style="stop-color:#509b23;stop-opacity:1;"
         offset="0"
         id="stop3819" />
    </linearGradient>
    <linearGradient
       id="linearGradient3811"
       osb:paint="solid">
      <stop
         style="stop-color:#000000;stop-opacity:1;"
         offset="0"
         id="stop3813" />
    </linearGradient>
    <linearGradient
       id="linearGradient3805"
       osb:paint="solid">
      <stop
         style="stop-color:#509b23;stop-opacity:1;"
         offset="0"
         id="stop3807" />
    </linearGradient>
    <linearGradient
       id="linearGradient3799"
       osb:paint="solid">
      <stop
         style="stop-color:#509b23;stop-opacity:1;"
         offset="0"
         id="stop3801" />
    </linearGradient>
  </defs>
  <sodipodi:namedview
     pagecolor="#ffffff"
     bordercolor="#666666"
     borderopacity="1"
     objecttolerance="10"
     gridtolerance="10"
     guidetolerance="10"
     inkscape:pageopacity="0"
     inkscape:pageshadow="2"
     inkscape:window-width="2048"
     inkscape:window-height="1104"
     id="namedview52"
     showgrid="false"
     inkscape:zoom="0.66245342"
     inkscape:cx="1824.1219"
     inkscape:cy="592.52752"
     inkscape:window-x="0"
     inkscape:window-y="22"
     inkscape:window-maximized="1"
     inkscape:current-layer="g6"
     inkscape:snap-grids="true"
     inkscape:snap-to-guides="false"
     inkscape:snap-page="true" />
  <metadata
     id="metadata4">
Created by potrace 1.12, written by Peter Selinger 2001-2015
<rdf:RDF>
  <cc:Work
     rdf:about="">
    <dc:format>image/svg+xml</dc:format>
    <dc:type
       rdf:resource="http://purl.org/dc/dcmitype/StillImage" />
    <dc:title></dc:title>
  </cc:Work>
</rdf:RDF>
</metadata>
  <g
     transform="matrix(0.1,0,0,-0.1,0,500)"
     id="g6"
     style="fill:#000000;stroke:none">
    <path
       d="m 3635.9257,4337.7692 c 0,-38 -7,-147 -15,-243 -14,-173 -14,-175 -42,-194 -15,-11 -53,-44 -83,-73 l -56,-52 -112,99 c -120,106 -152,129 -152,108 0,-6 25,-65 55,-129 81,-172 88,-244 34,-313 -40,-51 -47,-50 -160,16 -125,72 -259,141 -259,132 0,-4 37,-66 83,-138 46,-72 100,-161 120,-197 l 37,-67 -31,-67 -30,-67 -46,7 c -26,4 -117,24 -202,45 -168,41 -231,53 -231,47 0,-3 62,-41 138,-86 186,-111 276,-177 267,-199 -3,-9 -22,-74 -42,-144 -26,-94 -40,-128 -51,-128 -9,0 -106,18 -216,39 -111,21 -226,42 -256,45 -52,6 -47,3 85,-51 77,-32 194,-85 260,-118 l 119,-60 -3,-82 c -1,-46 1,-114 5,-152 l 6,-69 57,-7 c 97,-11 243,-54 331,-97 70,-34 101,-58 175,-133 97,-98 182,-225 215,-318 38,-109 24,-235 -45,-399 -20,-46 -33,-89 -30,-97 7,-19 257,-9 340,14 162,44 357,177 495,337 l 64,75 123,-58 c 83,-39 120,-53 114,-41 -5,9 -39,51 -75,92 -90,103 -94,113 -71,153 10,17 38,77 61,132 26,62 49,101 59,103 9,2 63,-8 121,-23 57,-15 109,-25 114,-23 6,2 -22,27 -63,56 -40,29 -90,70 -111,91 l -37,38 39,159 c 35,139 42,159 58,156 11,-2 71,-18 134,-37 63,-18 133,-36 155,-39 37,-7 33,-3 -50,49 -49,31 -123,81 -162,111 l -73,54 0,153 c 0,83 -4,179 -10,211 -5,33 -8,61 -6,63 2,2 64,25 137,52 74,26 154,57 179,68 l 45,19 -190,3 c -104,1 -192,5 -196,9 -3,4 -12,34 -19,67 -7,33 -35,120 -62,193 -41,111 -48,136 -37,148 7,9 69,62 138,118 70,57 135,113 146,126 l 20,23 -23,-8 c -51,-15 -338,-98 -358,-102 -16,-4 -28,4 -45,29 -13,18 -61,74 -106,125 -48,52 -83,101 -83,112 0,12 14,83 30,158 17,75 30,146 28,156 -2,14 -19,-4 -60,-64 -105,-155 -161,-220 -183,-214 -11,3 -53,5 -93,5 -49,0 -74,4 -77,13 -2,6 -9,52 -15,100 -7,49 -16,85 -20,80 -4,-4 -15,-43 -24,-85 -14,-62 -23,-82 -47,-103 -54,-45 -53,-46 -124,145 -60,159 -83,210 -95,210 -6,0 -10,-28 -10,-67 z"
       id="path8"
       style="fill:#ffffff;fill-opacity:1"
       inkscape:connector-curvature="0" />
    <path
       d="m 2350.9257,2489.7692 c 3,-55 7,-157 10,-226 l 5,-126 -77,-23 c -43,-12 -120,-38 -172,-57 l -94,-35 -195,194 c -107,106 -191,186 -187,178 5,-8 63,-100 130,-205 164,-256 153,-227 102,-268 -23,-19 -67,-51 -98,-71 l -56,-37 -132,67 c -73,36 -134,64 -136,62 -3,-2 28,-40 68,-83 40,-44 83,-93 94,-108 l 22,-29 -33,-51 c -18,-29 -40,-64 -49,-78 -13,-21 -47,-36 -208,-89 -211,-69 -214,-73 -64,-84 50,-4 117,-12 149,-19 l 59,-12 14,-54 c 27,-108 79,-188 204,-313 l 116,-117.00003 -52,-128 c -28,-70 -57,-139 -64,-151 -26,-48 -1,-30 105,76 60,60 121,117 136,126 24,16 29,16 57,1 17,-8 71,-29 119,-46 48,-17 93,-36 99,-42 7,-7 22,-63 34,-125 12,-63 25,-110 29,-105 4,4 21,53 38,108 l 31,100 130,0 130,0 68,-112 c 37,-62 68,-111 69,-110 2,2 -20,167 -28,215 -2,11 30,28 117,62 536,207 756,439.00003 743,785.00003 -3,87 -8,109 -36,169 -151,322 -448,477 -888,464 -74,-2 -134,-3 -134,-3 0,5 -159,365 -168,380 -9,16 -11,-1 -7,-80 z"
       id="path10"
       style="fill:#ffffff;fill-opacity:1"
       inkscape:connector-curvature="0" />
    <path
       d="m 4454.9257,1263.7692 c -31,-4 -78,-16 -106,-27 -39,-15 -67,-18 -135,-14 -81,4 -89,3 -187,-37 -139,-56 -203,-65 -396,-58 l -160,5 -65,-70 c -82,-89.00003 -142,-129.00003 -355,-241.00003 -93,-49 -179,-96 -190,-103 -18,-13 -18,-14 10,-14 17,0 67,7 112,16 79,16 82,16 107,-3 43,-34 107,-46 219,-40 56,2 120,11 142,19 34,13 45,13 73,1 23,-10 67,-13 145,-11 l 112,3 85,-45 85,-45 130,0 c 125,0 133,2 209,34 86,36 78,36 259,10 68,-9 114,-9 202,0 157,16 186,28 265,111 l 65,69 135,-1 c 155,-2 217,11 344,70 77,35 87,37 191,39 135,2 164,8 371,83.00003 91,33 172,60 181,60 8,0 13,6 11,13 -7,20 -75,34 -228,47 -80,6 -215,18 -300,26 -85,8 -280,19 -432,24 -241,8 -296,13 -430,40 -245,47 -352,57 -469,39 z"
       id="path12"
       style="fill:#ffffff;fill-opacity:1"
       inkscape:connector-curvature="0" />
    <path
       d="m 1375.9257,1240.7692 c -25,-7 -64,-23 -87,-34 l -42,-22 -48,26 c -71,38 -146,31 -283.00003,-26 l -105,-45 -165,0 c -136,0 -170,-3 -196,-17 -39,-22 -60,-46 -48,-58 14,-14 126,-28 284,-35 186,-8 264,-25 354.00003,-74.00003 134,-73 268,-104 511,-117 135,-6 201,2 225,31 17,20 -1,40 -57,67 -53,25 -103,83.00003 -182,216.00003 -69,113 -69,113 -161,88 z"
       id="path14"
       style="fill:#ffffff;fill-opacity:1"
       inkscape:connector-curvature="0" />
    <path
       d="m 15370.58,4573.9625 c -181,-39 -438,-163 -750,-364 -112,-72 -216,-179 -259,-267 -29,-58 -35,-82 -39,-160 -11,-212 55,-387 167,-449 66,-35 192,-45 344,-26 92,11 107,11 135,-4 41,-21 66,-68 58,-110 -16,-83 -133,-237 -261,-345 -159,-134 -250,-184 -565,-311 -388,-156 -407,-173 -417,-374 -6,-101 -5,-105 19,-129 69,-69 251,-62 494,19 192,63 399,163 531,256 83,59 566,481 678,594 95,95 246,302 302,413 53,105 67,220 42,345 -11,52 -17,61 -68,101 -77,61 -171,107 -231,113 -38,3 -71,-2 -133,-23 -107,-36 -279,-113 -369,-165 -84,-48 -120,-50 -152,-7 -17,23 -21,43 -21,101 0,70 1,74 44,131 65,86 136,151 221,201 102,60 155,58 175,-9 13,-40 67,-87 119,-102 60,-18 210,-20 257,-3 41,14 128,69 150,94 44,51 54,86 53,194 -1,167 -41,229 -176,272 -82,26 -259,33 -348,14 z m 477,-239 c 9,-26 10,-50 4,-75 -14,-56 -57,-153 -72,-163 -17,-11 -140,-11 -156,-1 -16,10 -17,20 -15,165 l 2,118 112,-3 113,-3 12,-38 z m -194,-581 c 74,-28 130,-63 122,-76 -3,-4 -29,-11 -58,-15 -28,-3 -84,-13 -124,-22 -59,-13 -75,-14 -87,-3 -9,7 -16,18 -16,26 0,7 -19,32 -42,54 -42,40 -43,42 -23,57 29,22 143,11 228,-21 z m 131,-217 c -2,-86 -6,-117 -26,-165 -54,-135 -188,-324 -229,-324 -24,0 -24,2 6,105 37,129 41,195 16,292 -12,45 -21,97 -21,116 l 0,34 83,23 c 45,12 87,24 92,26 6,1 26,2 45,1 l 35,-2 -1,-106 z m -1655,-1226 c -1,-121 -12,-200 -31,-219 -9,-9 -41,-18 -77,-21 l -61,-6 -50,50 c -42,43 -50,56 -50,88 0,50 38,114 88,149 48,33 83,44 140,45 l 42,1 -1,-87 z"
       id="path16"
       style="fill:#ffffff;fill-opacity:1"
       inkscape:connector-curvature="0" />
    <path
       d="m 8969.5797,4493.9625 c -61,-21 -104,-53 -175,-129 -150,-158 -318,-449 -439.9997,-764 -100,-257 -150,-576 -160,-1023 -8,-306 14,-470 67,-503 52,-33 174.9997,57 228.9997,167 25,50 40,109 70,282 44,245 42,240 225,709 73,187 147,385 165,440 47,145 60,175 76,175 18,0 124,-221 158,-328 31,-97 32,-133 9,-155 -10,-8 -80,-45 -156,-82 -155,-75 -201,-113 -210,-171 -9,-51 -8,-326 1,-383 4,-24 12,-46 18,-48 6,-2 66,43 135,100 172,142 256,206 305,230 44,21 74,18 74,-8 0,-8 29,-84 64,-168 148,-354 180,-412 240,-441 69,-33 241,-11 294,37 32,29 29,71 -19,292 -78,361 -146,588 -341,1140 -121,342 -161,425 -250,514 -109,108 -267,157 -379,117 z m 95,-112 47,-7 -33,-34 c -18,-19 -52,-46 -76,-60 -36,-22 -52,-25 -95,-20 -65,6 -107,25 -107,48 0,9 17,31 38,48 33,27 44,30 108,31 39,0 92,-3 118,-6 z m -185,-190 c 2,-2 -10,-17 -27,-34 -17,-17 -83,-95 -146,-173 -161,-198 -174,-213 -181,-205 -12,12 16,109 55,195 40,86 86,160 129,206 25,28 28,28 96,22 39,-4 72,-9 74,-11 z m 162,-1106 c -6,-103 -10,-131 -25,-147 -21,-23 -102,-71 -120,-71 -8,0 -9,37 -6,131 5,124 7,132 30,150 59,46 114,79 121,72 4,-5 4,-65 0,-135 z"
       id="path18"
       style="fill:#ffffff;fill-opacity:1"
       inkscape:connector-curvature="0" />
    <path
       d="m 13650.58,4498.9625 c -8,-5 -40,-11 -71,-15 -134,-15 -501,-142 -969,-336 -135,-56 -346,-143 -470,-195 -124,-51 -306,-123 -405,-159 -99,-37 -254,-94 -345,-128 -199,-73 -315,-128 -368,-174 -55,-47 -73,-102 -79,-249 -5,-114 -4,-122 19,-155 13,-19 43,-48 66,-64 37,-26 54,-31 118,-34 62,-4 88,0 152,23 157,56 318,154 421,256 34,33 67,59 74,56 29,-10 0,-310 -49,-501 -35,-139 -64,-221 -154,-430 -148,-343 -151,-410 -20,-478 139,-73 291,-9 420,177 136,198 318,646 409,1010 46,184 51,225 61,435 l 9,195 53,48 c 79,71 247,180 373,242 60,30 220,96 355,148 399,153 470,193 470,263 0,21 -8,42 -20,54 -22,22 -28,23 -50,11 z m -2310,-948 c 0,-5 -16,-53 -36,-108 -25,-70 -38,-126 -42,-185 -8,-101 -12,-104 -139,-115 l -83,-7 0,84 c 0,149 39,233 130,283 72,38 170,66 170,48 z m 511,-1370 c 49,-32 50,-59 7,-109 -72,-82 -163,-114 -227,-81 -62,31 -50,75 49,180 l 61,66 36,-15 c 19,-9 53,-27 74,-41 z"
       id="path20"
       style="fill:#ffffff;fill-opacity:1"
       inkscape:connector-curvature="0" />
    <path
       d="m 13848.58,4382.9625 c -30,-17 -28,-9 -78,-285 -71,-384 -127,-595 -220,-830 -125,-313 -241,-502 -326,-530 -74,-25 -124,14 -124,96 0,183 42,362 118,508 41,81 131,174 261,276 111,86 146,135 146,204 0,69 -36,125 -107,165 -72,42 -110,46 -189,21 -148,-45 -340,-208 -460,-389 -212,-320 -315,-639 -275,-858 19,-108 65,-199 130,-262 68,-63 114,-86 215,-105 157,-30 246,-19 386,49 113,55 212,138 327,275 245,289 435,657 504,975 21,94 29,426 13,489 -14,53 -107,144 -189,185 -70,34 -92,37 -132,16 z m -441,-459 c 51,-46 111,-143 97,-155 -47,-38 -103,-80 -121,-90 -20,-10 -26,-7 -64,46 -23,32 -62,79 -87,106 -41,41 -44,49 -32,62 22,21 122,75 141,75 9,0 39,-20 66,-44 z m -594,-670 c 59,-24 69,-41 61,-105 -13,-111 -25,-118 -124,-77 -43,18 -54,27 -52,42 6,41 58,154 70,154 7,0 27,-6 45,-14 z m 5,-255 c 21,-11 23,-17 17,-59 -11,-80 -23,-300 -18,-327 7,-33 -3,-56 -20,-49 -20,7 -103,187 -123,265 -15,59 -14,184 1,209 5,9 105,-19 143,-39 z"
       id="path22"
       style="fill:#ffffff;fill-opacity:1"
       inkscape:connector-curvature="0" />
    <path
       d="m 7740.58,4252.9625 c -191,-59 -581,-427 -793,-750 -229,-349 -286,-673 -162,-933 107,-225 374,-329 658,-256 142,36 258,120 389,282 149,185 304,469 315,578 16,167 -81,139 -400,-114 -67,-54 -136,-108 -154,-120 -109,-77 -172,66 -128,293 30,158 155,480 214,552 17,20 23,21 82,13 129,-19 238,21 281,103 19,34 23,58 23,127 0,92 -18,142 -67,187 -55,52 -162,67 -258,38 z m 204,-164 c 35,-37 62,-127 44,-148 -17,-20 -103,-63 -127,-63 -24,0 -29,17 -34,110 -2,36 -7,72 -11,81 -6,13 2,20 36,32 59,21 61,21 92,-12 z m -906,-925 c 2,-10 -6,-39 -17,-66 -12,-27 -21,-64 -21,-83 0,-19 -6,-39 -12,-44 -12,-9 -154,-43 -180,-43 -20,0 5,178 30,217 7,12 164,44 187,39 6,-2 12,-11 13,-20 z m -56,-360 c -5,-99 20,-210 70,-318 36,-79 31,-93 -24,-77 -55,15 -142,99 -178,172 -33,69 -60,177 -60,249 l 0,47 43,4 c 23,2 67,4 97,5 l 55,2 -3,-84 z"
       id="path24"
       style="fill:#ffffff;fill-opacity:1"
       inkscape:connector-curvature="0" />
    <path
       d="m 11073.58,4217.9625 c -178,-47 -269,-99 -421,-245 -297,-284 -496,-596 -557,-870 -21,-93 -16,-295 9,-390 48,-180 155,-317 310,-395 72,-37 99,-45 154,-48 143,-8 380,46 537,123 163,79 425,343 425,428 0,29 -41,47 -106,47 -51,0 -91,-11 -245,-69 -264,-99 -335,-122 -353,-115 -20,8 -24,35 -31,214 -13,296 41,559 169,830 70,148 63,144 134,78 34,-31 81,-64 106,-73 41,-16 50,-16 123,-1 81,16 113,34 147,80 18,24 21,42 21,144 0,102 -3,122 -23,159 -56,105 -225,149 -399,103 z m 317,-132 c 26,-42 38,-87 46,-164 l 6,-61 -48,-11 c -27,-6 -66,-14 -86,-17 l -38,-6 0,49 c 0,72 -17,153 -39,182 l -18,25 56,17 c 84,25 98,23 121,-14 z m -1044,-950 c -8,-80 -23,-102 -83,-118 -26,-6 -56,-14 -66,-17 -16,-4 -18,3 -15,84 l 3,88 55,12 c 30,6 68,12 84,12 l 29,1 -7,-62 z m -36,-168 c 0,-37 44,-338 60,-412 24,-112 15,-132 -33,-76 -140,162 -144,168 -157,306 -16,160 -19,148 53,171 73,23 77,24 77,11 z"
       id="path26"
       style="fill:#ffffff;fill-opacity:1"
       inkscape:connector-curvature="0" />
    <path
       d="m 6901.58,1696.9625 c -76,-13 -139,-43 -153,-74 -9,-21 -9,-34 3,-67 13,-36 13,-54 -3,-167 -9,-69 -20,-168 -24,-221 -7,-87 -9,-97 -36,-121 -33,-32 -35,-52.00003 -7,-104.00003 18,-36 20,-60 22,-225 2,-200 10,-235 54,-246 13,-4 80,-1 148,5 162,14 321,14 401,-1 74,-13 88,-7 105,52 16,54 -8,103 -64,126 -35,14 -72,17 -231,16 -126,-1 -194,2 -203,9 -9,8 -13,41 -13,120 l 0,108 56,7 c 31,3 122,4 201,2 l 144,-5 19,25 c 26,32 25,82.00003 -1,115.00003 -31,40 -86,51 -253,50 l -149,-1 7,102 c 9,150 27,273 41,293 10,14 35,18 126,23 63,4 150,3 194,-2 75,-8 81,-8 98,13 55,67 23,145 -68,168 -51,13 -336,13 -414,0 z"
       id="path28"
       style="fill:#ffffff;fill-opacity:1"
       inkscape:connector-curvature="0" />
    <path
       d="m 12335.58,1652.9625 c -48,-47 -34,-167 65,-570 54,-221.00003 129,-465.00003 166,-537.00003 13,-26 34,-54 46,-62 29,-20 90,-20 128,-1 27,14 30,20 30,68 0,135 209,704.00003 345,939.00003 25,43 45,87 45,99 0,11 -15,36 -34,55 -27,27 -42,34 -73,34 -21,0 -49,-7 -62,-17 -43,-29 -235,-453 -306,-673.00003 -15,-47 -31,-89 -35,-93 -8,-10 -18,24 -64,240.00003 -53,243 -78,407 -71,457 6,39 4,45 -20,65 -41,32 -127,30 -160,-4 z"
       id="path30"
       style="fill:#ffffff;fill-opacity:1"
       inkscape:connector-curvature="0" />
    <path
       d="m 14698.58,1572.9625 -26,-15 5,-121 6,-121 -84,3 c -80,3 -84,3 -97,-21 -7,-14 -11,-42 -8,-65 6,-53 39,-80 106,-88 29,-4 54,-8 56,-10 2,-2 -1,-92 -6,-200.00003 -15,-279 3,-410 61,-451 55,-38 160,-4 145,48 -25,85 -35,365 -20,549.00003 l 7,76 86,3 86,3 14,62 c 11,50 12,68 2,89 -12,27 -13,27 -95,22 l -82,-6 4,107 c 4,98 3,107 -17,125 -28,25 -107,31 -143,11 z"
       id="path32"
       style="fill:#ffffff;fill-opacity:1"
       inkscape:connector-curvature="0" />
    <path
       d="m 13970.58,1377.9625 c -67,-16 -65,-4 -65,-436.00003 0,-437 2,-451 65,-473 43,-15 105,2 125,33 14,21 14,30 0,87 -26,112 -15,270 25,363 22,53.00003 91,131.00003 134,153.00003 21,11 53,16 97,15 60,-2 67,0 93,27 17,18 30,44 33,69 5,36 2,45 -25,72 -26,25 -38,30 -79,30 -72,0 -144,-25 -218,-75 l -65,-45 0,74 c 0,76 -13,106 -45,106 -7,0 -19,2 -27,4 -7,2 -29,0 -48,-4 z"
       id="path34"
       style="fill:#ffffff;fill-opacity:1"
       inkscape:connector-curvature="0" />
    <path
       d="m 8329.58,1354.9625 c -32,-22 -34,-26 -31,-73 1,-27 -7,-116 -18,-199 -49,-360.00003 -50,-866.00003 -3,-947.00003 10,-18 30,-39 44,-45 36,-19 92.9997,-16 119.9997,6 23,18 23,21 10,62 -8,25 -16,106 -18,187 l -4,143 30,-15 c 44,-23 145,-21 198,5 86,42 163,160 204,314 31,116 32,326.00003 1,409.00003 -29,79 -66,124 -120,148 -61,27 -129,19 -196,-23 -31,-19 -52,-27 -54,-20 -2,7 -15,25 -29,41 -32,38 -83.9997,41 -133.9997,7 z m 330.9997,-189 c 42,-70 35,-231.00003 -17,-383.00003 -57,-163 -172,-221 -204,-102 -20,74 5,268 51,390.00003 44,117 128,164 170,95 z"
       id="path36"
       style="fill:#ffffff;fill-opacity:1"
       inkscape:connector-curvature="0" />
    <path
       d="m 9275.5797,1345.9625 c -102,-36 -215,-157 -215,-229 0,-29 6,-42 26,-58 15,-12 33,-21 40,-21 29,0 63,24 83,61 29,51 89,99 123,99 39,0 58,-33 58,-100 l 0,-55 -68,-16 c -156,-38.00003 -283,-129.00003 -336,-243.00003 -24,-50 -27,-69 -24,-121 5,-79 33,-119 105,-152 76,-35 184,-31 263,10 34,18 56,24 58,17 2,-6 15,-24 29,-40 19,-23 33,-30 61,-30 75,0 142,68 111,113 -11,18 -15,83 -19,317 -5,278.00003 -6,297.00003 -27,335.00003 -55,103 -165,149 -268,113 z m 115,-527.00003 c 0,-50 -4,-65 -27,-92 -33,-39 -115,-79 -164,-79 -127,0 -54,155 98,206 37,13 74,24 81,24 8,0 12,-18 12,-59 z"
       id="path38"
       style="fill:#ffffff;fill-opacity:1"
       inkscape:connector-curvature="0" />
    <path
       d="m 7910.58,1331.9625 c -136,-36 -289,-134 -350,-224 -28,-42 -35,-63 -38,-114.00003 -7,-112 21,-140 262,-257 79,-38 147,-76 150,-84 11,-29 -34,-45 -124,-45 -92,0 -148,18 -184,59 -31,35 -78,26 -101,-20 -20,-38 -19,-62 6,-93 70,-89 294,-121 445,-65 136,51 184,181 103,274 -36,41 -99,77 -231,135 -150,66 -168,100 -90,176.00003 65,63 189,122 227,108 19,-8 19,-51 0,-84 -22,-38 -18,-68 11,-95 36,-33.00003 70,-32.00003 103,4 35,37 51,92 51,172 0,144 -80,195 -240,153 z"
       id="path40"
       style="fill:#ffffff;fill-opacity:1"
       inkscape:connector-curvature="0" />
    <path
       d="m 10735.58,1323.9625 c -73,-34 -127,-86 -189,-179 -162,-244.00003 -178,-491.00003 -39,-606.00003 97,-80 249,-94 373,-35 170,81 274,250 201,328 -27,29 -72,42 -98,28 -10,-6 -24,-30 -30,-54 -24,-90 -146,-178 -247,-178 -41,0 -53,5 -82,34 -19,19 -34,41 -34,49 0,9 28,24 73,41 141,51 263,154 316,266.00003 21,45 26,69 26,136 0,69 -3,85 -25,117 -53,77 -149,98 -245,53 z m 120,-145 c 10,-32 -20,-88 -82,-153 -61,-64.00003 -140,-124.00003 -150,-114.00003 -4,3 13,45 37,92.00003 68,138 176,235 195,175 z"
       id="path42"
       style="fill:#ffffff;fill-opacity:1"
       inkscape:connector-curvature="0" />
    <path
       d="m 11594.58,1332.9625 c -217,-59 -393,-216 -394,-353.00003 0,-93 47,-137 256,-237 85,-41 157,-82 161,-91 12,-31 -25,-44 -121,-44 -98,0 -154,18 -190,59 -25,28 -57,27 -86,-4 -36,-38 -33,-90 7,-125 119,-107 426,-100 530,12 45,48 56,123 27,184 -22,46 -75,81 -238,158 -141,67 -163,87 -147,129.00003 13,34 94,102 155,131 72,33 99,38 122,22 18,-14 18,-15 -4,-69 -18,-44 -21,-60 -13,-76 15,-27 51,-51.00003 77,-51.00003 53,0 112,129.00003 101,221.00003 -16,129 -96,174 -243,134 z"
       id="path44"
       style="fill:#ffffff;fill-opacity:1"
       inkscape:connector-curvature="0" />
    <path
       d="m 13422.58,1328.9625 c -91,-43 -206,-179 -266,-316 -63,-141.00003 -78,-291.00003 -37,-377.00003 29,-61 83,-115 140,-142 37,-17 65,-21 146,-21 88,0 107,3 158,27 70,33 178,134 207,193 37,76 22,139 -39,165 -51,21 -79,7 -92,-45 -24,-95 -144,-185 -246,-185 -55,0 -86,17 -109,62 -16,32 -9,47 24,48 21,0 138,56 184,88 71,49 137,123 170,191.00003 57,115 39,244 -44,302 -45,33 -137,37 -196,10 z m 116,-158 c 5,-33 -35,-101 -92,-158 -54,-54.00003 -133,-111.00003 -141,-103.00003 -13,13 91,195.00003 137,241.00003 53,53 90,61 96,20 z"
       id="path46"
       style="fill:#ffffff;fill-opacity:1"
       inkscape:connector-curvature="0" />
    <path
       d="m 15475.58,1332.9625 c -218,-59 -394,-217 -395,-353.00003 0,-93 47,-136 256,-237 85,-41 157,-82 161,-91 12,-31 -24,-44 -119,-44 -96,0 -134,11 -184,53 -40,34 -64,34 -94,2 -32,-34 -32,-86 -1,-119 57,-61 220,-98 346,-78 154,24 235,92 235,198 0,91 -42,129 -263,233 -138,65 -156,83 -131,132.00003 19,38 89,95 149,123 71,33 99,38 121,22 18,-14 18,-15 -4,-69 -26,-61 -22,-82 20,-111.00003 46,-33 84,-13 124,64.00003 25,48 25,173 1,218 -37,68 -112,87 -222,57 z"
       id="path48"
       style="fill:#ffffff;fill-opacity:1"
       inkscape:connector-curvature="0" />
    <path
       d="m 9944.5797,1308.9625 c -66,-44 -164,-227 -205,-381.00003 -31,-117 -32,-257 -3,-320 95,-203 377.0003,-189 525.0003,27 66,96 69,177 8,209 -55,28 -80,16 -112,-51 -46,-97 -122,-165 -185.0003,-165 -106,0 -109,204 -6,416.00003 20,40 45.0003,81 56.0003,91 19,17 20,17 34,-2 8,-10 14,-27 14,-37 0,-28 37,-58 71,-58 21,0 40,10 61,30 27,27 30,36 25,72 -7,51 -49,113 -104,152 -56,39 -134.0003,46 -179.0003,17 z"
       id="path50"
       style="fill:#ffffff;fill-opacity:1"
       inkscape:connector-curvature="0" />
  </g>
</svg>
